<svg width="100" height="80" viewBox="0 0 100 80" fill="none" xmlns="http://www.w3.org/2000/svg">
<path fill-rule="evenodd" clip-rule="evenodd" d="M20.7703 0C15.0644 0 10.8424 5.01535 11.0314 10.4545C11.2127 15.68 10.9771 22.4477 9.2805 27.9669C7.57883 33.502 4.70083 37.0086 0 37.4588V42.5412C4.70083 42.9914 7.57883 46.498 9.2805 52.0335C10.9771 57.5523 11.2127 64.3202 11.0314 69.5457C10.8424 74.9841 15.0644 80 20.7712 80H79.2371C84.9433 80 89.1646 74.985 88.9754 69.5457C88.7942 64.3202 89.0296 57.5523 90.7262 52.0335C92.4287 46.498 95.2992 42.9914 100 42.5412V37.4588C95.2992 37.0086 92.4287 33.502 90.7262 27.9669C89.0296 22.4485 88.7942 15.68 88.9754 10.4545C89.1646 5.01618 84.9433 0 79.2371 0H20.7703ZM67.7967 49.245C67.7967 56.7347 62.2337 61.2769 53.0025 61.2769H37.2881C36.8386 61.2769 36.4075 61.0974 36.0897 60.7781C35.7718 60.4588 35.5932 60.0262 35.5932 59.5747V20.4256C35.5932 19.9741 35.7718 19.5412 36.0897 19.222C36.4075 18.9028 36.8386 18.7235 37.2881 18.7235H52.9129C60.61 18.7235 65.6617 22.9107 65.6617 29.3396C65.6617 33.8518 62.2637 37.8919 57.9337 38.5991V38.8351C63.8279 39.4845 67.7967 43.5831 67.7967 49.245ZM51.2892 24.1192H42.3287V36.8291H49.8754C55.7092 36.8291 58.9262 34.4699 58.9262 30.2528C58.9262 26.3013 56.16 24.1192 51.2892 24.1192ZM42.3287 41.8725V55.8794H51.6187C57.6925 55.8794 60.91 53.4315 60.91 48.8316C60.91 44.2309 57.6025 41.8717 51.2279 41.8717L42.3287 41.8725Z" fill="#18E48C"/>
</svg>
