<svg width="78" height="100" viewBox="0 0 78 100" fill="none" xmlns="http://www.w3.org/2000/svg">
<path d="M16.5512 51.2472C16.496 61.1833 23.8127 67.1049 35.4864 64.4119V38.0775C23.667 34.4935 16.6015 41.7466 16.5512 51.2472ZM35.8432 0H51.9189V75.7996C36.5115 78.3074 21.7473 79.8992 11.1943 74.0227C-2.39899 66.4492 -3.49449 42.3923 7.26457 31.6754C12.717 26.2443 23.7022 22.415 35.4864 24.9128V1.0712C35.4562 0.565632 35.4261 0.0600671 35.8432 0ZM78 16.7287H61.9242V0H78V16.7287Z" fill="#18E48C"/>
<path d="M78 25.1931C77.9849 36.9863 77.9849 45.4558 77.9849 59.7868C77.3015 73.8675 77.4623 85.075 72.2813 91.8125C71.2611 93.144 69.0953 95.0762 67.2811 96.4377C65.7585 97.579 62.8539 99.8965 61.2106 99.9967C59.5473 100.102 55.2808 97.6991 53.3511 96.7931C50.8134 95.6068 48.4716 94.025 45.8484 93.2391C51.9692 89.4649 57.7683 86.6317 60.1403 79.0032C62.2006 72.3658 61.9242 62.7501 61.9242 53.3796C61.9242 44.1243 61.9695 33.3673 61.9695 25.1981L78 25.1931Z" fill="#18E48C"/>
</svg>
