<svg width="100" height="100" viewBox="0 0 100 100" fill="none" xmlns="http://www.w3.org/2000/svg">
<g clip-path="url(#clip0_64_201)">
<path d="M46.4366 99.9213C46.134 99.8923 45.0733 99.7932 44.0793 99.7012C42.3283 99.5391 38.9012 99.0112 38.4218 98.8298C38.2921 98.7807 37.2616 98.5063 36.1318 98.22C32.7932 97.3742 28.0341 95.3628 25.0638 93.5423C24.4155 93.145 23.5612 92.6468 23.1652 92.435C22.4552 92.0554 20.6153 90.7163 18.6205 89.1273C16.0463 87.0768 11.5309 82.3881 9.41107 79.5644C7.5051 77.0256 4.88528 72.503 3.78036 69.844C3.52953 69.2404 3.20103 68.4644 3.05035 68.1194C2.49184 66.8409 1.27234 62.6862 0.795441 60.4372C0.152662 57.4059 -0.00067371 55.381 2.22138e-06 49.9329C0.000714979 44.36 0.0582215 43.6608 0.870747 39.3501C1.38968 36.5971 2.56585 32.9203 3.86895 29.9777C4.37608 28.8325 4.79101 27.833 4.79101 27.7566C4.79101 27.6802 4.84748 27.5942 4.91651 27.5655C4.98554 27.5367 5.34889 26.9488 5.72396 26.2589C6.45903 24.907 8.10984 22.277 8.63336 21.6239C8.81057 21.4028 9.097 21.0234 9.26987 20.7808C10.7514 18.7014 11.8257 17.4514 14.063 15.2036C18.4119 10.8344 20.1455 9.47052 25.2531 6.39982C28.9653 4.16803 34.4936 2.02113 38.5003 1.25526C39.0189 1.15613 39.6554 1.01044 39.9147 0.93151C41.2581 0.522585 46.8505 0.00247907 49.9306 8.10127e-06C52.3352 -0.00194734 56.9929 0.350488 58.223 0.627415C58.612 0.714979 59.1424 0.81666 59.4017 0.853372C60.0498 0.945131 62.2424 1.45563 64.0403 1.93337C68.2178 3.0434 73.6321 5.55582 77.5529 8.20368C82.3085 11.4153 87.6228 16.6114 91.088 21.4377C92.7792 23.7931 93.424 24.8809 95.0612 28.1403C96.9513 31.9031 98.0233 34.958 98.8542 38.9493C99.2011 40.6154 99.3632 41.6519 99.8733 45.4646C100.043 46.7312 100.042 52.6057 99.8721 54.4011C99.4548 58.815 98.7531 62.2934 97.5633 65.8461C95.3826 72.3576 92.5097 77.2966 87.5963 82.9815C85.1669 85.7924 79.7609 90.5236 77.1906 92.0883C76.7414 92.3617 76.0911 92.7658 75.7453 92.9863C73.6926 94.2952 72.3153 95.0159 69.9655 96.0108C63.3457 98.8136 56.9867 100.062 49.6579 99.9976C48.1885 99.9847 46.7391 99.9504 46.4366 99.9213ZM34.7287 68.9762C39.3249 68.1278 43.1252 65.5995 45.207 62.005C45.9003 60.8079 46.7204 58.4467 46.7453 57.5759C46.752 57.3379 41.9737 57.2922 41.3614 57.5245C41.1121 57.6191 40.9468 57.8367 40.8831 58.1542C40.6613 59.2608 39.9945 60.3525 38.8954 61.4089C37.2233 63.016 35.912 63.6612 33.6881 63.9709C31.389 64.2911 28.6643 64.1049 26.7835 63.4991C25.3361 63.0328 24.107 62.2474 22.8431 60.9812C20.7295 58.8636 19.7205 56.2517 19.7205 52.8979V51.4223H33.5332C45.9836 51.4223 47.3553 51.3978 47.4412 51.1743C47.6105 50.7343 47.532 48.5553 47.3033 47.346C46.3634 42.3745 45.5518 40.1197 43.7483 37.4688C42.6925 35.9169 40.9422 34.1656 39.6004 33.3185C39.0818 32.991 38.4807 32.6036 38.2646 32.4575C37.7201 32.0894 35.8881 31.4148 34.5715 31.0977C33.0144 30.7227 28.907 30.727 27.1853 31.1056C24.2224 31.7571 21.4514 33.2138 19.2282 35.2887C17.9782 36.4554 16.1989 38.8312 15.5994 40.1341C14.8462 41.7713 14.5345 42.5543 14.5345 42.8096C14.5345 42.9662 14.4729 43.1324 14.3976 43.1788C14.2561 43.266 14.2254 43.3889 13.7869 45.6214C13.471 47.229 13.439 51.6383 13.7293 53.5388C14.4706 58.3922 15.9269 61.6135 18.7801 64.7113C19.6656 65.6727 22.1131 67.2633 23.728 67.9268C25.6104 68.7002 26.0931 68.8049 29.6212 69.2047C30.5197 69.3066 33.7131 69.1636 34.7287 68.9762ZM19.7233 45.9741C19.7312 44.2739 20.8093 41.3989 22.0477 39.7758C22.7359 38.8738 24.4428 37.4711 25.4929 36.9445C26.7864 36.2959 28.2595 36.0131 30.407 36.0012C32.5772 35.989 33.6047 36.1789 35.0033 36.8508C37.8016 38.195 40.2295 41.1542 40.7845 43.8968C40.8804 44.3711 41.0077 44.9707 41.0673 45.2294C41.1268 45.4881 41.1524 45.8938 41.124 46.1309L41.0725 46.5621H30.3965H19.7205L19.7233 45.9741ZM57.3555 68.237C57.7392 67.655 58.6597 66.2969 59.401 65.219C60.1423 64.1411 61.0247 62.8359 61.3617 62.3185C61.6988 61.8012 62.55 60.5312 63.2534 59.4965C63.9567 58.4617 65.1458 56.6796 65.8958 55.5362C66.9398 53.9445 67.33 53.4668 67.561 53.498C67.8541 53.5377 71.4936 58.7647 75.6129 65.0622C76.5435 66.485 77.5814 68.0195 77.9193 68.4722L78.5335 69.2953H82.3649C84.4722 69.2953 86.1963 69.2645 86.1963 69.227C86.1963 69.1894 85.7688 68.5721 85.2462 67.8552C84.7237 67.1382 84.0152 66.1479 83.6718 65.6545C83.3285 65.1612 82.6068 64.1598 82.0682 63.4292C81.0494 62.0475 80.1573 60.8056 79.753 60.2059C79.6234 60.0136 78.4882 58.4349 77.2305 56.6976C75.9727 54.9603 74.4991 52.9039 73.9558 52.1278C73.4124 51.3517 72.6583 50.2934 72.2799 49.7761C71.9015 49.2587 71.5894 48.7033 71.5865 48.5418C71.5805 48.2169 72.6387 46.7459 77.7476 39.9773C78.2357 39.3305 78.8336 38.5374 79.0762 38.2148C79.3188 37.8921 79.6234 37.493 79.753 37.3279C79.8827 37.1628 80.0948 36.8739 80.2245 36.686C80.3541 36.4981 81.3325 35.1822 82.3985 33.7616C83.5551 32.2206 84.3019 31.0878 84.25 30.953C84.1782 30.7662 83.584 30.7272 80.8096 30.7272H77.456L76.9937 31.3623C76.7394 31.7116 76.3899 32.1855 76.2171 32.4154C76.0442 32.6454 75.1775 33.8588 74.2911 35.1119C73.4047 36.3651 72.5776 37.5315 72.4532 37.7039C72.3287 37.8764 71.5222 39.0052 70.6609 40.2124C68.2922 43.5328 67.7656 44.2104 67.5537 44.2104C67.3778 44.2104 66.2285 42.6077 63.225 38.1743C62.6408 37.312 62.1073 36.5359 62.0395 36.4496C61.6049 35.8967 61.0914 35.1605 61.0007 34.9603C60.942 34.8309 60.3012 33.8794 59.5765 32.8458C58.722 31.6269 58.1284 30.9299 57.8874 30.8625C57.6831 30.8053 55.9011 30.7514 53.9275 30.7428L50.3392 30.7272L50.6713 31.1584C50.854 31.3955 51.2719 31.9775 51.6 32.4518C52.2425 33.3805 53.4082 34.9754 55.1586 37.3205C56.7294 39.4251 56.9078 39.6699 57.3787 40.3657C57.6108 40.7087 57.8781 41.0742 57.9726 41.1778C58.0671 41.2815 58.4627 41.8059 58.8517 42.3431C59.2406 42.8803 60.3072 44.3139 61.222 45.5289C63.757 48.896 63.8123 48.9902 63.518 49.4384C63.3836 49.643 63.1762 49.9086 63.0572 50.0284C62.9382 50.1483 62.3796 50.9167 61.8159 51.7358C60.4587 53.7079 58.0398 57.125 56.1863 59.6887C55.3617 60.8292 54.2438 62.3813 53.702 63.1379C53.1602 63.8945 52.583 64.6899 52.4194 64.9054C51.6617 65.904 49.4225 69.1113 49.4225 69.198C49.4225 69.2515 51.0504 69.2953 53.0402 69.2953H56.6579L57.3555 68.237Z" fill="#18E48C"/>
</g>
<defs>
<clipPath id="clip0_64_201">
<rect width="100" height="100" fill="white"/>
</clipPath>
</defs>
</svg>
