<svg width="100" height="100" viewBox="0 0 100 100" fill="none" xmlns="http://www.w3.org/2000/svg">
<g clip-path="url(#clip0_63_189)">
<path d="M46.5485 99.8447C45.0258 99.7296 43.4951 99.587 43.1471 99.5278C36.4755 98.3934 32.1676 97.038 27.3268 94.5503C22.3457 91.9905 19.0649 89.6343 15.0109 85.7056C10.0826 80.9295 7.00527 76.409 3.66591 69.04C3.52123 68.7207 2.45451 65.7162 2.1236 64.6959C1.84521 63.8375 1.16033 61.1034 0.916723 59.8778C0.179446 56.1688 -0.00681434 54.1303 0.000188219 49.8468C0.00829972 44.8598 0.33192 42.2937 1.61367 37.0514C1.92612 35.7735 3.20634 32.0231 3.74364 30.8117C3.85924 30.551 4.15581 29.8757 4.40267 29.311C5.9506 25.7699 8.85079 21.1832 11.6444 17.8583C12.0824 17.337 13.2628 16.0694 14.2676 15.0415C19.1929 10.0027 24.868 6.20073 31.2818 3.64315C33.8659 2.61269 34.5915 2.37134 36.9772 1.74884C40.7742 0.758078 43.1608 0.37943 47.4612 0.0854587C54.4005 -0.388904 62.9631 1.13608 69.6712 4.041C72.3046 5.18139 72.8652 5.47606 76.9789 7.88166C77.6468 8.27223 79.9761 9.94722 80.9561 10.7416C85.3366 14.2925 88.6957 17.9369 91.7628 22.4662C92.3022 23.2629 92.7436 23.9487 92.7436 23.9902C92.7436 24.0317 93.0163 24.5173 93.3496 25.0692C94.2567 26.5715 95.6281 29.3563 96.2942 31.0486C96.6191 31.874 96.9451 32.6915 97.0187 32.8652C97.1372 33.1449 97.5199 34.2992 97.9616 35.7087C100.107 42.5548 100.595 51.2595 99.2545 58.772C98.6761 62.0149 97.5185 66.012 96.3037 68.961C95.6434 70.5639 94.0501 73.7858 93.3649 74.9036C93.0232 75.4611 92.7436 75.9495 92.7436 75.989C92.7436 76.2172 90.0452 80.0226 88.822 81.5195C86.0594 84.9001 82.1091 88.5714 78.6636 90.9606C75.7024 93.0139 73.3297 94.3137 68.962 96.2753C67.8499 96.7747 64.1615 97.978 62.3936 98.4181C58.3154 99.4332 56.2623 99.7066 50.5826 99.9907C49.8865 100.025 48.0712 99.9599 46.5485 99.8447ZM44.8671 76.408C47.2335 75.2581 48.9302 73.2696 49.7179 70.723C50.0176 69.7543 50.0289 69.1873 50.0289 55.2011V40.6847H54.998H59.9672L61.4134 40.2128C62.2088 39.9532 63.1773 39.5226 63.5656 39.2559C65.2675 38.0866 66.5877 36.2605 67.2094 34.2157C67.4943 33.2782 67.4929 30.552 67.2076 29.6112C66.7473 28.0968 65.7055 26.395 64.6778 25.4785C63.8756 24.763 62.5146 23.9913 61.4336 23.639C60.4463 23.3172 60.1425 23.3082 50.2485 23.3082C43.7151 23.3082 39.7786 23.368 39.24 23.4757C36.939 23.9354 34.8152 25.1143 33.6809 26.5614C32.406 28.1879 31.6818 30.214 31.6818 32.1544C31.6818 34.0664 32.3521 36.0034 33.5722 37.617C34.9138 39.3913 37.6713 40.8427 39.7005 40.8427C40.5711 40.8427 40.5794 41.0862 39.7135 41.2245C36.2446 41.7784 33.4032 44.0355 32.3393 47.0824C31.4224 49.7084 31.6531 52.1738 33.0493 54.6681C33.5654 55.5901 35.1125 57.1304 36.0457 57.6512C36.9113 58.1342 38.8442 58.851 39.2812 58.851C39.8627 58.851 39.5865 59.0926 38.7887 59.2819C36.7532 59.7646 34.6672 61.218 33.4791 62.9811C32.4226 64.549 31.9887 65.8174 31.8798 67.6572C31.635 71.7889 33.945 75.3035 37.89 76.8016C38.7889 77.143 39.0796 77.1723 41.1702 77.1331L43.4642 77.0901L44.8671 76.408ZM60.4209 58.7603C62.137 58.3643 63.3971 57.6779 64.5699 56.5003C66.4502 54.6125 67.3514 51.9806 66.9547 49.5363C66.4498 46.4255 64.3283 43.8759 61.3404 42.7891C60.1778 42.3661 57.0801 42.4083 55.9157 42.8628C53.0008 44.0007 50.9761 46.4996 50.4974 49.5502C49.9782 52.8589 52.0068 56.6606 55.0396 58.0622C57.0613 58.9966 58.5565 59.1906 60.4209 58.7603Z" fill="#18E48C"/>
</g>
<defs>
<clipPath id="clip0_63_189">
<rect width="100" height="100" fill="white"/>
</clipPath>
</defs>
</svg>
