<svg width="94" height="100" viewBox="0 0 94 100" fill="none" xmlns="http://www.w3.org/2000/svg">
<path d="M70.3337 68.0865L70.3556 90.2054L50.6361 100V77.8908L70.3337 68.0865ZM94 56.2648V78.461L77.1812 86.8157L77.169 64.7209L94 56.2648ZM70.3046 38.4803L70.3264 60.3672L50.6361 70.1063V48.2121L70.3046 38.4803ZM94 26.7553V48.5045L77.1642 57.0234L77.1496 35.093L94 26.7553ZM47.6384 24.1822L65.2388 33.0249L46.9782 42.1527L29.7103 33.5202L47.6384 24.1822ZM23.1565 11.8821L39.9438 20.3165L21.9744 29.6521L4.73325 21.0341L23.1565 11.8821ZM71.1445 12.0101L89.2255 21.0341L73.0547 29.1181L55.4179 20.2633L71.1445 12.0101ZM47.085 0L63.3625 8.12273L47.7549 16.417L30.9822 7.9971L47.085 0Z" fill="#18E48C"/>
<path d="M43.6746 48.2121L30.3923 41.5656V70.2948C30.3923 70.2948 14.1488 35.8927 12.6439 32.8026C12.4497 32.404 11.6511 31.9667 11.4472 31.8604C8.53442 30.3382 0 26.0353 0 26.0353V76.7915L11.8064 83.0732V56.5426C11.8064 56.5426 27.8777 87.282 28.0403 87.6178C28.2029 87.9536 29.8171 91.1935 31.5405 92.3315C33.8367 93.8439 43.677 99.7342 43.677 99.7342L43.6746 48.2121Z" fill="#18E48C"/>
</svg>
