<svg width="100" height="100" viewBox="0 0 100 100" fill="none" xmlns="http://www.w3.org/2000/svg">
<path d="M56.3694 0.409266C28.9754 -3.09074 3.92225 16.2437 0.409316 43.6375C-3.09112 71.0282 16.2457 96.0782 43.6428 99.5907C71.0368 103.091 96.0899 83.7563 99.5872 56.3625C103.103 28.9718 83.7696 3.92177 56.3694 0.409266ZM66.6581 31.6093C65.7299 31.6093 64.8485 31.9843 64.1985 32.65L45.643 51.1875L44.3585 49.9156L41.6863 47.2312C59.9667 29.0031 63.2734 28.8218 66.655 31.6062L66.6581 31.6093ZM46.4088 51.8531L64.8986 33.35C65.9237 32.275 67.6333 32.2906 68.6615 33.3656C69.671 34.4562 69.571 36.1656 68.4334 37.1062L48.8528 54.2938L46.4088 51.8531ZM47.7777 54.7531L43.1865 55.7438C43.0896 55.7594 42.9615 55.7094 42.9115 55.5969C42.8614 55.4969 42.8771 55.3844 42.9615 55.3L45.6462 52.6156L47.7777 54.7531ZM36.0887 52.8344L40.9893 47.95L44.6523 51.6125L36.3981 53.3844C36.2513 53.4188 36.1075 53.3563 36.0387 53.2219C35.9606 53.0938 35.9918 52.9313 36.0887 52.8344ZM20.9025 78.0751C20.7243 78.0594 20.5899 77.8969 20.6056 77.7344C20.6212 77.6563 20.6556 77.5876 20.7056 77.5376H20.7212L24.6592 73.6001L29.7567 78.6969L20.9025 78.0751ZM31.0069 72.8344C30.6193 73.0469 30.4224 73.4876 30.5193 73.9094L31.3663 77.5094C31.5007 78.0313 30.8631 78.3844 30.488 77.9969H30.4724L25.3624 72.8844L41.0393 57.225L48.6247 55.5844L52.2532 59.2313C47.0276 63.8188 39.8798 68.3938 31.01 72.8344H31.0069ZM53.0033 58.5625L49.5029 55.0625L69.0834 37.875C69.2616 37.7125 69.4241 37.5343 69.571 37.3531C68.9709 42.9531 61.1231 50.8625 53.0033 58.5625ZM68.2552 31.6406H68.2396C61.4169 24.7874 71.0556 14.2562 78.4784 20.4406L71.7744 27.1656C71.5775 27.3562 71.5775 27.6874 71.7744 27.8781L76.9657 33.075C74.0528 34.5218 70.5524 33.9375 68.2552 31.6406ZM78.9815 31.6406C78.6409 31.9812 78.2658 32.2906 77.8595 32.55L72.8308 27.5218L79.2097 21.1249C81.9757 24.1374 81.8632 28.7593 78.9815 31.6406ZM78.5721 25.2124C78.3627 25.3593 78.2815 25.6156 78.3471 25.8624C78.6565 26.4781 78.5721 27.2124 78.1346 27.7343C77.922 27.9968 77.972 28.3562 78.2315 28.5625C78.3315 28.6281 78.444 28.6781 78.5721 28.6781C78.7503 28.6781 78.919 28.6125 79.0128 28.4812C79.7473 27.6031 79.891 26.3656 79.3878 25.3406C79.1909 25.0812 78.8347 25.0156 78.5721 25.2124Z" fill="#18E48C"/>
</svg>
