<svg width="98" height="100" viewBox="0 0 98 100" fill="none" xmlns="http://www.w3.org/2000/svg">
<path d="M96.2033 37.6106C94.519 30.7135 91.3254 25.5128 84.5225 25.5128H75.7509V36.0928C75.7509 44.3068 68.9261 51.2262 61.1388 51.2262H37.7771C31.3898 51.2262 26.0962 56.8064 26.0962 63.3463V86.0688C26.0962 92.5418 31.6085 96.3363 37.7771 98.1889C45.1706 100.399 52.2797 100.8 61.1388 98.1889C67.023 96.4479 72.8197 92.9435 72.8197 86.0688V76.9843H49.4798V73.9487H84.5225C91.3254 73.9487 93.8409 69.1051 96.2033 61.8509C98.6533 54.3734 98.5439 47.1862 96.2033 37.6106ZM62.6044 83.0332C65.0325 83.0332 67.0011 85.0643 67.0011 87.5643C67.0011 90.0865 65.0325 92.1177 62.6044 92.1177C60.1982 92.1177 58.2077 90.0642 58.2077 87.5643C58.2296 85.042 60.1982 83.0332 62.6044 83.0332ZM36.7052 48.2353H60.067C66.5637 48.2353 71.7479 42.7667 71.7479 36.1151V13.3704C71.7479 6.89738 66.4105 2.05379 60.067 0.960077C52.236 -0.356842 43.7269 -0.28988 36.7052 0.982398C26.8181 2.76805 25.0244 6.4956 25.0244 13.3927V22.4772H48.408V25.5128H16.2528C9.44986 25.5128 3.50005 29.6868 1.64074 37.6106C-0.502945 46.6951 -0.590442 52.3646 1.64074 61.8509C3.30318 68.9042 7.26243 73.9487 14.0653 73.9487H22.0932V63.0562C22.0932 55.177 28.7649 48.2353 36.7052 48.2353ZM35.2397 16.406C32.8116 16.406 30.8429 14.3748 30.8429 11.8749C30.8648 9.35265 32.8116 7.32147 35.2397 7.32147C37.6458 7.32147 39.6364 9.37497 39.6364 11.8749C39.6364 14.3748 37.6677 16.406 35.2397 16.406Z" fill="#18E48C"/>
</svg>
