<svg width="100" height="89" viewBox="0 0 100 89" fill="none" xmlns="http://www.w3.org/2000/svg">
<path d="M44.3733 65.1892C46.2072 65.2724 48.0811 65.3324 49.9783 65.3324C51.8956 65.3324 53.7895 65.2924 55.6467 65.1892C53.7895 67.5879 51.9556 69.7101 50.015 71.7324L50.0417 71.7057C48.1111 69.7068 46.2572 67.5812 44.51 65.3691L44.3733 65.1892ZM25.3743 62.5239C28.9854 63.4401 33.39 64.2197 37.8847 64.6994L38.3215 64.7361C41.0723 68.5107 43.8532 71.8323 46.8374 74.9574L46.8007 74.9174C42.4294 79.7915 36.531 83.2164 29.859 84.4457L29.6756 84.4724C29.6622 84.4724 29.6489 84.4724 29.6356 84.4724C28.8086 84.4724 28.0284 84.2691 27.3449 83.9093L27.3715 83.9227C24.5974 82.3402 23.3937 76.2867 24.3306 68.5074C24.554 66.5917 24.9208 64.5761 25.3709 62.5205L25.3743 62.5239ZM74.6657 62.4806C75.0592 64.0597 75.4293 66.072 75.6927 68.1176L75.7227 68.4041C76.6797 76.1801 75.4993 82.2269 72.7485 83.8427C72.135 84.1825 71.4014 84.3824 70.6212 84.3824C70.5445 84.3824 70.4678 84.3791 70.3911 84.3758H70.4011C63.5557 83.1264 57.6606 79.7249 53.2993 74.9107L53.276 74.8841C56.2069 71.809 58.9677 68.4941 61.4984 65.0059L61.6918 64.7261C66.6133 64.213 71.0246 63.4201 75.3226 62.3373L74.6657 62.4772V62.4806ZM29.2721 50.0471C30.1057 51.6796 30.9793 53.3054 31.9396 54.9379C32.8976 56.5615 33.8768 58.1473 34.8771 59.6954C31.9829 59.2723 29.1888 58.7392 26.518 58.0895C27.2682 55.4676 28.2085 52.7523 29.2688 50.0404L29.2721 50.0471ZM70.7112 49.9638C71.8149 52.699 72.7518 55.4276 73.5287 58.0729C70.8613 58.7259 68.0437 59.2789 65.1295 59.6954C66.1298 58.1328 67.1301 56.5237 68.0671 54.8746C69.004 53.2521 69.881 51.5929 70.7179 49.9605L70.7112 49.9638ZM22.0533 32.1431C23.5071 37.0672 25.0675 41.1851 26.8847 45.1563L26.6347 44.55C25.0809 47.8982 23.5437 51.9927 22.2834 56.2072L22.11 56.8902C19.7559 56.1672 17.862 55.4576 16.0181 54.6613L16.4016 54.8079C9.18609 51.7395 4.51802 47.705 4.51802 44.5067C4.51802 41.3083 9.18609 37.2538 16.4016 34.1987C18.1521 33.4491 20.0727 32.7728 22.0533 32.1431ZM77.8667 32.1265C79.884 32.7495 81.8012 33.4458 83.5951 34.1987C90.8106 37.2805 95.4786 41.3083 95.4786 44.5067C95.4586 47.705 90.7906 51.7495 83.5751 54.8113C81.8245 55.5609 79.9073 56.2338 77.93 56.8635C76.4629 51.9228 74.9025 47.8083 73.0919 43.8304L73.3453 44.4567C74.8925 41.1118 76.4329 37.0173 77.69 32.8028L77.8667 32.1165V32.1265ZM65.1029 29.318C68.0004 29.7477 70.7912 30.2741 73.462 30.9304C72.7118 33.5624 71.7749 36.2676 70.7112 38.9796C69.8776 37.3571 69.004 35.7213 68.0437 34.0921C67.1068 32.4596 66.1065 30.8705 65.1062 29.3213L65.1029 29.318ZM34.8538 29.318C33.8535 30.8871 32.8532 32.493 31.9196 34.1488C30.9826 35.7712 30.1057 37.4037 29.2721 39.0362C28.1684 36.3043 27.2315 33.5824 26.4546 30.9304C29.1221 30.3074 31.9329 29.7511 34.8505 29.3246L34.8538 29.318ZM49.9983 28.2585C53.0826 28.2585 56.1535 28.3984 59.1744 28.645C60.866 31.0682 62.5087 33.649 64.1026 36.3876C65.6519 39.0529 67.0657 41.7537 68.3438 44.49C67.0601 47.2186 65.653 49.9438 64.1226 52.6091C62.5388 55.3576 60.9016 57.9729 59.2044 60.395C56.1702 60.6582 53.0959 60.8015 49.995 60.8015C46.9107 60.8015 43.8398 60.6549 40.8189 60.415C39.1284 57.9929 37.4779 55.401 35.8908 52.6724C34.3414 50.0071 32.9277 47.3063 31.6495 44.57C32.9132 41.8347 34.3403 39.1028 35.8708 36.4342C37.4546 33.6857 39.0917 31.0804 40.7889 28.6583C43.8231 28.3918 46.8974 28.2519 49.9983 28.2519V28.2585ZM49.935 17.3276C51.8689 19.3265 53.7228 21.4488 55.4666 23.6609L55.6 23.8375C53.7661 23.7542 51.8922 23.6976 49.995 23.6976C48.0778 23.6976 46.1839 23.7376 44.3266 23.8375C46.1805 21.4388 48.0144 19.3165 49.9583 17.2943L49.9316 17.3209L49.935 17.3276ZM29.5922 4.62757C36.4376 5.88025 42.3294 9.2818 46.694 14.0926L46.7173 14.1193C43.7865 17.1976 41.0256 20.5126 38.4949 24.0074L38.3015 24.2873C33.3833 24.797 28.972 25.5833 24.6774 26.666L25.3309 26.5261C24.8641 24.4872 24.5174 22.5115 24.2739 20.6159C23.317 12.8399 24.4973 6.7931 27.2482 5.18395C27.935 4.86078 28.7386 4.66089 29.5855 4.63424H29.5955L29.5922 4.62757ZM70.3044 4.54428V4.57094C70.3478 4.57094 70.3978 4.5676 70.4511 4.5676C71.248 4.5676 71.9983 4.76417 72.6585 5.11065L72.6318 5.09733C75.406 6.68649 76.6096 12.7367 75.6727 20.5192C75.4493 22.4349 75.0825 24.4538 74.6324 26.5128C71.0146 25.5866 66.61 24.8037 62.1153 24.3272L61.6885 24.2906C58.9343 20.5126 56.1535 17.191 53.1693 14.0626L53.2093 14.1026C57.5806 9.23849 63.469 5.81362 70.1277 4.5776L70.3144 4.54761L70.3044 4.54428ZM70.3244 0.00666269C62.182 1.24268 55.1332 5.19394 49.985 10.8943L49.9583 10.9243C44.7734 5.22726 37.7246 1.30265 29.7823 0.113274L29.5955 0.0899527C29.5522 0.0899527 29.4988 0.0899527 29.4455 0.0899527C27.8083 0.0899527 26.2712 0.519727 24.9408 1.27267L24.9875 1.24934C19.2591 4.55095 17.9754 14.8389 20.9329 27.7488C8.24914 31.6634 0 37.9201 0 44.5133C0 51.1332 8.29249 57.4066 21.013 61.2912C18.0788 74.2511 19.3891 84.5557 25.1309 87.8539C26.3912 88.5769 27.905 89 29.5155 89C29.5889 89 29.6622 89 29.7323 88.9967H29.7222C37.8647 87.7607 44.9135 83.8061 50.0617 78.1024L50.0884 78.0724C55.2732 83.7727 62.322 87.6973 70.2644 88.8867L70.4511 88.91C70.5012 88.91 70.5645 88.91 70.6245 88.91C72.2517 88.91 73.7821 88.4836 75.1059 87.7407L75.0592 87.764C80.7842 84.4657 82.0713 74.1778 79.1137 61.2645C91.7509 57.3832 100 51.1132 100 44.51C100 37.8901 91.7075 31.6168 78.987 27.7221C81.9212 14.7756 80.6108 4.46099 74.8691 1.15939C73.5954 0.429775 72.0683 0 70.4411 0C70.3978 0 70.3544 0 70.3111 0H70.3178L70.3244 0.00666269ZM59.2911 44.5133C59.2911 49.654 55.1199 53.8218 49.975 53.8218C44.8301 53.8218 40.6589 49.654 40.6589 44.5133C40.6589 39.3727 44.8301 35.2049 49.975 35.2049C52.5491 35.2049 54.8765 36.2477 56.5636 37.9301C58.2508 39.6159 59.2911 41.9413 59.2911 44.5133Z" fill="#18E48C"/>
</svg>
