<svg width="99" height="100" viewBox="0 0 99 100" fill="none" xmlns="http://www.w3.org/2000/svg">
<path d="M41.0726 99.9049C40.9024 99.735 35.4625 99.3134 31.3928 99.1547C29.4265 99.078 27.6674 98.9188 27.4836 98.8009C27.0587 98.5285 25.4346 98.2486 23.0139 98.0306C21.9693 97.9366 20.8131 97.7514 20.4444 97.6192C19.405 97.2464 17.7166 96.8966 16.9565 96.8966C16.5779 96.8966 16.0012 96.7554 15.675 96.5828C15.3488 96.4103 14.4787 96.1427 13.7413 95.9881C13.004 95.8335 12.1292 95.5733 11.7973 95.4098C11.4655 95.2462 10.9453 95.1124 10.6414 95.1124C10.3375 95.1124 9.79017 94.8615 9.42506 94.5549C9.05994 94.2483 8.56903 93.9974 8.33415 93.9974C8.09926 93.9974 7.56637 93.7465 7.14995 93.4398C6.73353 93.1332 6.16599 92.8823 5.88875 92.8823C5.6115 92.8823 5.30426 92.7568 5.20599 92.6035C5.10772 92.4502 4.6754 92.1329 4.24528 91.8984C3.81517 91.664 3.03818 91.0869 2.51865 90.6161C1.99911 90.1453 1.47124 89.7601 1.34561 89.7601C1.21997 89.7601 1.11718 89.6235 1.11718 89.4567C1.11718 89.2898 0.865813 88.7835 0.558589 88.3317L0 87.5101V79.5269C0 73.0952 0.0646717 71.3309 0.332737 70.4489C0.515741 69.8468 0.666559 68.9845 0.667889 68.5328C0.669747 67.9087 0.77756 67.6776 1.11718 67.57C1.67657 67.3928 2.4348 67.6145 3.01639 68.1252C3.75618 68.7749 7.05131 70.5803 7.50706 70.5857C7.74077 70.5882 8.18334 70.7869 8.49057 71.0267C8.79779 71.2666 9.27229 71.4651 9.54501 71.4678C9.81773 71.4703 10.4349 71.6777 10.9164 71.9283C11.398 72.1788 12.2809 72.462 12.8784 72.5575C13.4759 72.653 14.1658 72.8405 14.4116 72.974C15.0877 73.3414 19.8766 74.3808 20.8716 74.3761C21.6478 74.3727 22.6169 74.5887 24.929 75.2814C25.3064 75.3945 26.3823 75.487 27.32 75.487C28.2577 75.487 29.6039 75.6376 30.3116 75.8216C31.0193 76.0056 32.2877 76.1561 33.1302 76.1561C33.9726 76.1561 34.8816 76.2749 35.15 76.4201C35.7588 76.7495 60.953 76.7563 61.5942 76.4277C61.8193 76.3122 62.9219 76.1557 64.0445 76.0798C65.1671 76.004 66.355 75.8397 66.6844 75.7147C67.0138 75.5897 68.1566 75.4883 69.2238 75.4893C70.9536 75.491 72.9395 75.1753 74.9786 74.5745C75.356 74.4633 76.2107 74.3692 76.8778 74.3653C77.5883 74.361 78.2706 74.2225 78.5246 74.0307C78.7631 73.8507 79.3678 73.7033 79.8684 73.7033C80.3689 73.7033 81.33 73.4917 82.0042 73.2331C82.6783 72.9745 83.7557 72.6823 84.3982 72.5839C85.0408 72.4855 85.8336 72.1953 86.16 71.9391C86.4864 71.6828 87.0666 71.471 87.4495 71.4683C87.8323 71.4657 88.5477 71.2815 89.0392 71.0593C89.5308 70.8371 90.2346 70.5819 90.6033 70.4922C91.2194 70.3423 92.4893 69.7624 94.1783 68.8598C94.5469 68.6628 95.0497 68.3973 95.2955 68.2698C97.371 67.1931 97.2613 67.2257 97.7411 67.5428C98.0896 67.7732 98.2371 68.1889 98.3538 69.2694C98.4383 70.0522 98.6125 71.646 98.7409 72.8113C98.8693 73.9765 98.9732 77.489 98.9718 80.6168C98.9692 86.2951 98.9684 86.306 98.358 87.8076C97.7247 89.366 97.0258 90.1185 95.287 91.1137C94.8001 91.3924 93.9995 91.8509 93.508 92.1325C92.4634 92.7311 91.1797 93.3287 90.9385 93.3287C90.8457 93.3287 90.6446 93.4792 90.4916 93.6632C90.3386 93.8472 89.9391 93.9978 89.6038 93.9978C89.2684 93.9978 88.5213 94.2487 87.9435 94.5553C87.3657 94.8619 86.6922 95.1128 86.4468 95.1128C86.2014 95.1128 85.7292 95.2501 85.3973 95.4178C85.0655 95.5856 84.241 95.8453 83.5651 95.9949C82.8892 96.1444 81.7832 96.4015 81.1073 96.5661C80.4314 96.7307 79.2751 96.9769 78.5378 97.1132C77.8004 97.2496 76.7447 97.4753 76.1917 97.6147C75.6387 97.7541 74.3818 97.9411 73.3987 98.0302C70.728 98.2723 69.4275 98.4949 68.93 98.795C68.6415 98.9691 67.3347 99.0744 65.2433 99.0921C63.4614 99.1072 61.5008 99.2231 60.8863 99.3498C59.1218 99.7134 41.3788 100.21 41.0726 99.9049ZM41.2312 73.244C40.8665 73.1354 38.3026 73.0319 35.5336 73.014C32.7271 72.9959 30.3133 72.8841 30.0794 72.7616C29.4972 72.4564 27.5362 72.1464 25.0248 71.9626C23.8574 71.8772 22.7518 71.7109 22.568 71.593C22.2184 71.3688 20.8465 71.1116 18.7686 70.8806C18.0927 70.8055 17.3414 70.6069 17.099 70.4393C16.8566 70.2718 16.2907 70.1347 15.8415 70.1347C14.9812 70.1347 13.5339 69.6293 13.2965 69.246C13.2194 69.1215 12.7852 69.0165 12.3317 69.0126C11.8565 69.0084 11.1282 68.7728 10.6132 68.4562C10.1216 68.154 9.57835 67.9063 9.40587 67.9056C9.07493 67.9048 7.19971 67.1004 5.69762 66.3156C4.12399 65.4935 3.04308 64.7159 1.9609 63.6274C0.141381 61.7972 0.166582 61.9419 0.10432 52.9624C0.0741298 48.6081 0.141264 44.5938 0.253512 44.0418C0.365761 43.4898 0.519041 42.6368 0.594131 42.1462C0.731116 41.2511 1.01948 40.6966 1.34791 40.6966C1.44472 40.6966 2.01344 41.0729 2.61174 41.5329C3.21004 41.9928 4.1994 42.6012 4.81031 42.8848C5.42122 43.1684 6.3987 43.6451 6.98249 43.9442C7.56628 44.2432 8.28931 44.4878 8.58922 44.4878C8.88912 44.4878 9.19271 44.5818 9.26385 44.6967C9.47147 45.032 10.7494 45.6029 11.2923 45.6029C11.5666 45.6029 12.079 45.7529 12.431 45.9362C12.783 46.1196 13.4229 46.327 13.853 46.3972C14.2831 46.4674 14.987 46.6673 15.4171 46.8413C15.8472 47.0154 16.8904 47.2635 17.7354 47.3927C18.5803 47.5219 19.5556 47.7742 19.9028 47.9533C20.2499 48.1325 21.0668 48.282 21.7181 48.2856C22.3693 48.289 24.0082 48.4989 25.36 48.7516C26.7118 49.0044 29.2254 49.2794 30.9459 49.3628C32.6663 49.4462 34.2751 49.6242 34.5209 49.7583C34.7821 49.9009 37.0451 50.0597 39.9679 50.1407C42.8309 50.22 45.0857 50.3767 45.2435 50.5073C45.4032 50.6396 47.0107 50.7446 49.069 50.7571C51.8426 50.7739 52.7587 50.7047 53.2572 50.4408C53.742 50.1841 54.7468 50.096 57.4402 50.0744C59.8666 50.0548 61.322 49.9417 62.0529 49.7158C62.869 49.4636 63.7109 49.4201 65.6252 49.5313C67.7415 49.6542 68.2557 49.617 68.9432 49.2914C69.3907 49.0794 70.6265 48.8085 71.6895 48.6894C75.3827 48.2755 76.3065 48.1339 76.862 47.8964C77.1692 47.7651 78.2249 47.5359 79.2081 47.3873C80.1912 47.2386 81.2671 46.977 81.5989 46.806C81.9307 46.6349 82.5051 46.495 82.8753 46.495C83.2454 46.495 84.101 46.2886 84.7766 46.0363C85.4522 45.784 86.2352 45.5546 86.5166 45.5265C86.7981 45.4984 87.4305 45.2675 87.9221 45.0134C88.4136 44.7593 89.1938 44.4931 89.6558 44.4218C90.1178 44.3505 90.7869 44.0853 91.1426 43.8325C91.4984 43.5796 91.9866 43.3728 92.2276 43.3728C92.4685 43.3728 92.9188 43.1741 93.2281 42.9312C93.5374 42.6883 94.0286 42.3875 94.3196 42.2627C94.9075 42.0105 95.4706 41.6714 96.2726 41.0868C96.8939 40.634 97.6598 40.581 98.0437 40.9642C98.1912 41.1114 98.312 41.6884 98.3121 42.2465C98.3123 42.8046 98.463 44.1143 98.647 45.1569C98.8932 46.5519 98.9816 48.7773 98.9818 53.5831C98.9821 60.1074 98.9816 60.1149 98.4236 61.214C98.1163 61.8192 97.8622 62.4431 97.8588 62.6005C97.8554 62.7579 97.4958 63.1375 97.0597 63.4442C96.6236 63.7508 96.0084 64.2275 95.6926 64.5035C95.3768 64.7795 95.0259 65.0053 94.9128 65.0053C94.7996 65.0053 94.3775 65.2562 93.9747 65.5628C93.5719 65.8695 93.0379 66.1204 92.7881 66.1204C92.5382 66.1204 92.2086 66.2709 92.0556 66.4549C91.9026 66.6389 91.6027 66.7894 91.3891 66.7894C91.1756 66.7894 90.6304 67.0403 90.1777 67.347C89.725 67.6536 89.054 67.9045 88.6867 67.9045C88.3194 67.9045 87.5229 68.1554 86.9166 68.462C86.2906 68.7787 85.4306 69.0196 84.9263 69.0196C84.4379 69.0196 83.9752 69.1215 83.8981 69.246C83.6408 69.6615 82.1819 70.1346 81.1358 70.1418C80.5671 70.146 79.9066 70.2962 79.6681 70.4763C79.4295 70.6564 78.8528 70.8037 78.3865 70.8037C77.5376 70.8037 76.5102 70.9897 74.6276 71.4842C74.0746 71.6295 72.5664 71.8314 71.2761 71.9328C68.6483 72.1395 66.9799 72.4072 66.1114 72.7615C65.7508 72.9087 63.5701 72.9933 60.4138 72.9826C57.0251 72.9712 55.0883 73.0522 54.6714 73.2226C53.9165 73.5314 42.2582 73.55 41.2312 73.244ZM39.5482 46.2545C34.5291 45.7065 32.7717 45.5986 31.1129 45.7367C29.6991 45.8544 29.1951 45.8183 28.9065 45.5788C28.6906 45.3997 27.6725 45.1968 26.4993 45.0991C22.0416 44.7278 20.8787 44.5912 20.5896 44.4051C20.4237 44.2983 19.7199 44.132 19.0256 44.0356C18.3312 43.9391 17.1599 43.6904 16.4225 43.483C15.6852 43.2755 14.6295 43.0568 14.0765 42.9969C13.5235 42.937 12.5494 42.6458 11.9118 42.3498C11.2742 42.0538 10.414 41.8116 10.0001 41.8116C9.54839 41.8116 8.94513 41.5888 8.49057 41.2541C8.07415 40.9475 7.60898 40.6966 7.45686 40.6966C7.05041 40.6966 3.16259 38.7047 2.96324 38.3944C2.86958 38.2486 2.41672 37.8494 1.95689 37.5073C1.46866 37.1441 0.892459 36.4024 0.57191 35.7245L0.022985 34.5636L0.0417757 27.2041C0.0531087 22.7659 0.150939 19.6233 0.288236 19.287C0.497669 18.7742 0.713711 16.9343 1.03328 12.9421C1.13173 11.7123 1.29074 11.2055 1.80304 10.489C3.00054 8.81405 3.45792 8.41034 5.06654 7.60848C5.94835 7.16891 6.73351 6.70641 6.81136 6.5807C6.8892 6.45498 7.10839 6.35213 7.29846 6.35213C7.48852 6.35213 7.94869 6.09625 8.32106 5.78352C8.84701 5.34179 9.14425 5.24695 9.65308 5.3585C10.1045 5.45745 10.4321 5.39001 10.7072 5.14156C11.2569 4.64504 14.1292 3.67647 15.7522 3.44036C17.4593 3.19202 18.7119 2.90831 19.5093 2.58939C19.8553 2.45104 20.4469 2.33784 20.824 2.33784C21.5009 2.33784 22.1982 2.18257 24.5503 1.50803C25.3701 1.27292 26.2014 1.20545 27.1681 1.29556C27.9473 1.36818 28.6338 1.34832 28.6938 1.25143C29.1497 0.51502 40.8506 -0.286482 42.0207 0.338546C42.3257 0.501487 42.5957 0.493091 42.9384 0.310006C44.0165 -0.265878 63.7311 0.0233881 67.0308 0.663506C68.0754 0.866144 70.036 1.10897 71.3878 1.20312C72.7396 1.29728 74.097 1.4741 74.4042 1.59606C74.7114 1.71803 75.7169 1.94188 76.6385 2.09352C77.5602 2.24516 78.817 2.50734 79.4315 2.67616C80.0459 2.84497 81.1519 3.09758 81.8893 3.23751C82.6266 3.37744 83.5601 3.63369 83.9636 3.80695C84.3672 3.98021 85.071 4.12248 85.5277 4.12311C86.0176 4.12378 86.7244 4.34951 87.2517 4.67369C87.7433 4.97588 88.4527 5.22626 88.8282 5.23009C89.2038 5.23388 89.8517 5.48794 90.2681 5.79459C90.6845 6.10123 91.2009 6.35212 91.4155 6.35212C91.6302 6.35212 91.8689 6.454 91.946 6.57852C92.0231 6.70304 92.4373 6.95137 92.8666 7.13036C94.5641 7.83833 96.338 9.49041 97.1799 11.1476C97.7707 12.3106 97.8618 12.7323 97.8784 14.3807C97.8975 16.273 97.9532 16.7326 98.6202 20.5136C99.0784 23.1108 99.1414 34.0966 98.7028 34.9353C97.9128 36.4462 95.2407 38.9124 94.3936 38.9124C94.1209 38.9124 93.773 39.0625 93.6205 39.2459C93.468 39.4294 92.9517 39.6965 92.4733 39.8396C91.9948 39.9826 91.4917 40.234 91.3553 40.3981C91.2188 40.5623 90.8617 40.6966 90.5618 40.6966C90.2619 40.6966 89.495 40.9342 88.8575 41.2246C86.8384 42.1445 84.8373 42.7682 83.4533 42.9091C82.716 42.9841 81.9655 43.1383 81.7857 43.2517C81.4669 43.4527 80.6378 43.6363 78.271 44.0299C77.6328 44.1361 77.0061 44.2874 76.8783 44.3662C76.7506 44.445 75.7143 44.6061 74.5755 44.7241C69.6554 45.2343 68.8359 45.3431 68.5558 45.5236C68.3929 45.6286 66.5504 45.7809 64.4612 45.8622C62.3721 45.9434 59.0038 46.1108 56.9761 46.234C52.5923 46.5005 41.9166 46.513 39.5482 46.2545ZM55.4557 19.28C57.951 19.1535 60.666 18.9026 61.489 18.7225C63.2659 18.3336 65.6743 18.2957 66.4413 18.6445C66.8805 18.8443 67.1388 18.8159 67.7365 18.5022C68.5319 18.0848 69.3885 17.9073 72.9747 17.4166C74.2162 17.2468 75.4453 16.9939 75.706 16.8546C75.9667 16.7153 76.954 16.5034 77.8999 16.3837C78.8458 16.264 79.8503 16.0153 80.1322 15.8309C80.4141 15.6466 80.8846 15.4958 81.1778 15.4958C81.87 15.4958 83.134 15.0689 83.5826 14.6836C83.7767 14.517 84.2794 14.3802 84.6998 14.3796C85.1203 14.3789 85.8665 14.1312 86.358 13.829C86.8496 13.5268 87.396 13.2764 87.5722 13.2726C87.7485 13.2688 88.3283 13.0551 88.8608 12.7979C89.9388 12.277 90.4434 11.6203 89.9894 11.3289C89.2244 10.838 88.6052 10.5894 88.1473 10.5894C87.8692 10.5894 87.529 10.4539 87.3913 10.2884C87.2536 10.1228 86.261 9.70707 85.1854 9.36458C84.1099 9.02209 82.7775 8.55998 82.2245 8.33766C81.6714 8.11535 80.6742 7.86699 80.0084 7.78576C79.3425 7.70452 78.4879 7.44945 78.1092 7.21894C77.5961 6.90665 76.9901 6.79961 75.7316 6.79899C74.5936 6.79843 73.9013 6.69135 73.609 6.47073C73.3705 6.29064 72.8736 6.13949 72.505 6.13483C72.1363 6.1302 71.5441 5.9751 71.1889 5.79021C70.7114 5.54165 70.182 5.49098 69.1574 5.59575C68.1285 5.70097 67.5757 5.64735 67.0102 5.38749C66.0336 4.93864 64.6778 4.84617 54.5184 4.53544C48.0085 4.33634 44.9434 4.34047 40.7771 4.55399C33.8591 4.90852 31.5395 5.11071 30.7638 5.42679C30.4178 5.56775 29.4555 5.68308 28.6254 5.68308C27.7952 5.68308 26.1679 5.89185 25.0091 6.147C23.8503 6.40216 22.2486 6.69125 21.4499 6.78944C20.6511 6.88762 19.5953 7.12804 19.1038 7.3237C18.6122 7.51936 17.657 7.77437 16.9811 7.8904C16.3052 8.00642 15.0484 8.36897 14.1882 8.69605C13.328 9.02313 12.1214 9.44442 11.507 9.63224C10.8925 9.82007 10.231 10.1123 10.037 10.2816C9.84302 10.4509 9.41112 10.5894 9.07727 10.5894C8.49624 10.5894 7.37339 11.4466 7.37339 11.8901C7.37339 12.1955 7.79441 12.4636 9.16087 13.0283C9.83677 13.3076 10.5973 13.7261 10.851 13.9584C11.1047 14.1907 11.5572 14.3811 11.8565 14.3816C12.1558 14.3821 12.8953 14.633 13.4999 14.9392C14.1044 15.2453 14.9138 15.4958 15.2985 15.4958C15.6833 15.4958 16.1044 15.602 16.2344 15.7318C16.3645 15.8615 17.1638 16.1161 18.0108 16.2975C18.8577 16.4789 20.0534 16.735 20.6678 16.8666C21.7811 17.105 23.5761 17.3999 27.8178 18.0411C29.0467 18.2269 30.9068 18.3841 31.9513 18.3904C32.9959 18.3968 34.4538 18.5473 35.1912 18.7251C35.9539 18.9089 37.6578 19.0516 39.144 19.0561C40.6354 19.0606 41.8154 19.1597 41.8942 19.287C42.0764 19.5812 49.5924 19.5774 55.4557 19.28Z" fill="#18E48C"/>
</svg>
