<svg width="89" height="100" viewBox="0 0 89 100" fill="none" xmlns="http://www.w3.org/2000/svg">
<g clip-path="url(#clip0_64_195)">
<path d="M43.6759 99.9164C43.4967 99.8755 42.947 99.7098 42.4543 99.5483C41.9616 99.3867 41.192 99.1687 40.7441 99.0637C39.5256 98.7782 38.6653 98.547 38.301 98.407C38.1218 98.3382 37.6821 98.204 37.3238 98.1089C36.3427 97.8486 35.0141 97.4818 33.723 97.1147C33.0863 96.9338 32.3863 96.7857 32.1675 96.7857C31.9488 96.7857 31.7001 96.7242 31.615 96.649C31.4449 96.4987 30.3269 96.1494 28.4471 95.6593C26.2452 95.0852 24.3069 94.5472 23.5609 94.303C23.1578 94.1711 22.4249 93.9742 21.9322 93.8656C21.4395 93.7569 20.5966 93.5388 20.0591 93.3809C19.5216 93.223 18.6055 92.968 18.0232 92.8141C17.4409 92.6603 16.8179 92.4796 16.6388 92.4127C15.9708 92.163 15.1446 91.9417 14.1957 91.7583C13.6582 91.6545 13.0911 91.5028 12.9356 91.4213C12.78 91.3398 12.5408 91.2732 12.404 91.2732C12.2672 91.2732 12.028 91.2081 11.8725 91.1287C11.7169 91.0492 11.1499 90.8648 10.6124 90.719C8.75355 90.2147 8.33155 90.0813 8.17972 89.9502C8.09586 89.8777 7.96759 89.0514 7.89469 88.1138C7.76567 86.4546 7.55885 84.2661 7.28161 81.6263C7.20668 80.9129 7.06269 79.2348 6.96162 77.8973C6.86055 76.5597 6.70865 74.8816 6.62406 74.1682C6.53947 73.4548 6.32071 70.8647 6.13792 68.4125C5.95514 65.9602 5.73251 63.3702 5.64321 62.6568C5.5539 61.9434 5.44231 60.9585 5.39524 60.468C5.34817 59.9776 5.2439 58.9196 5.16353 58.1171C5.08315 57.3145 4.90742 55.1622 4.77301 53.3342C4.6386 51.5061 4.4512 49.2809 4.35656 48.3891C4.26193 47.4974 4.07248 45.4545 3.93557 43.8494C3.79866 42.2443 3.64501 40.5298 3.59414 40.0393C3.54327 39.5489 3.42943 38.4545 3.34116 37.6073C3.00731 34.4034 2.88774 33.0801 2.72584 30.7978C2.63412 29.5048 2.47897 27.5713 2.38107 26.5013C2.28316 25.4312 2.14308 23.8261 2.06977 22.9343C1.89738 20.8372 1.59768 17.6439 1.47632 16.6112C1.20539 14.3056 0.804125 9.54674 0.66975 7.04536C0.607475 5.88612 0.519327 4.87482 0.473866 4.79803C0.428405 4.72124 0.336197 3.8822 0.268958 2.9335C0.20172 1.98481 0.0954484 1.05531 0.0327989 0.867969C-0.041431 0.645991 0.0110016 0.435651 0.183326 0.264112C0.426015 0.0225265 4.07522 0.000809659 44.5619 1.3652e-05C83.4905 -0.000721689 88.6998 0.0276075 88.8779 0.241283C89.0335 0.427806 89.039 0.697032 88.9023 1.41347C88.7287 2.3228 88.6705 2.98114 88.3689 7.4507C88.1651 10.4706 88.0863 11.3824 87.8996 12.8821C87.7631 13.9789 87.5124 16.6937 87.1734 20.7456C87.1324 21.236 87.0286 22.3669 86.9429 23.2586C86.8571 24.1503 86.7056 25.9743 86.6062 27.3119C86.5067 28.6495 86.3504 30.2181 86.2588 30.7978C86.1672 31.3774 86.0976 32.18 86.1042 32.5812C86.1109 32.9825 86.0389 33.9675 85.9443 34.77C85.7469 36.4457 85.5727 38.3215 85.3044 41.6606C85.2005 42.9536 85.0456 44.5588 84.9602 45.2276C84.8748 45.8964 84.7646 47.2096 84.7153 48.1459C84.6659 49.0823 84.5524 50.432 84.4629 51.1454C84.3734 51.8588 84.2275 53.4274 84.1385 54.6312C84.0495 55.8351 83.9098 57.4402 83.828 58.1982C83.5885 60.4164 83.3804 62.6542 83.1796 65.1698C82.9419 68.1478 82.6949 71.0234 82.5249 72.7901C82.452 73.548 82.338 74.8978 82.2717 75.7895C82.2053 76.6813 82.0824 77.4977 81.9984 77.6039C81.9145 77.7101 81.8563 78.2938 81.8691 78.901C81.8819 79.5082 81.8197 80.6981 81.7309 81.5452C81.6421 82.3924 81.4492 84.5812 81.3022 86.4092C81.1553 88.2372 80.9687 89.7999 80.8876 89.8817C80.681 90.0902 79.5793 90.4571 79.1512 90.4601C78.955 90.4613 78.753 90.5291 78.7025 90.6105C78.652 90.692 78.3023 90.8104 77.9255 90.8738C77.5487 90.9372 77.1276 91.0458 76.9898 91.1153C76.7323 91.2451 76.0478 91.4337 74.6219 91.7678C74.174 91.8727 73.4044 92.0903 72.9117 92.2513C72.419 92.4123 71.7594 92.5923 71.4458 92.6513C71.1323 92.7103 70.4727 92.8903 69.98 93.0513C69.4873 93.2123 68.7177 93.4299 68.2698 93.5348C66.7904 93.8814 66.1559 94.0592 65.8696 94.2074C65.7141 94.2878 65.4069 94.3537 65.187 94.3537C64.9671 94.3537 64.748 94.4168 64.7001 94.4939C64.6523 94.5711 64.3364 94.6786 63.9983 94.7329C63.6602 94.7872 63.0171 94.9375 62.5692 95.0669C62.1213 95.1962 61.0585 95.4931 60.2075 95.7265C58.1528 96.2902 57.5834 96.4576 57.1944 96.6125C57.0152 96.6839 56.099 96.9374 55.1584 97.1759C53.6507 97.5583 51.5023 98.1388 50.0279 98.5621C49.5218 98.7075 46.2249 99.6047 45.2231 99.8698C44.6252 100.028 44.2185 100.04 43.6759 99.9164ZM45.2562 78.968C45.462 78.8881 45.9235 78.7432 46.2818 78.646C46.6402 78.5489 47.483 78.3188 48.1549 78.1348C48.8267 77.9509 49.633 77.7318 49.9465 77.6481C50.9558 77.3786 52.283 76.998 53.2854 76.6905C53.8229 76.5256 54.6658 76.3033 55.1585 76.1965C55.6512 76.0897 56.4574 75.8652 56.9501 75.6977C57.4428 75.5301 58.4322 75.2404 59.1489 75.0537C59.8655 74.8671 60.7084 74.6439 61.0219 74.5577C61.3355 74.4715 61.7632 74.3643 61.9725 74.3194C62.6662 74.1707 64.0231 73.7935 64.8902 73.5084C65.7307 73.232 65.7456 73.2159 65.7645 72.5628C65.7751 72.1973 65.8114 71.6795 65.8454 71.4119C66.0327 69.936 66.4336 65.7527 66.7 62.4947C66.802 61.2462 66.9589 59.4952 67.0486 58.6035C67.1384 57.7118 67.2872 55.8878 67.3794 54.5502C67.4716 53.2126 67.5843 51.8993 67.6298 51.6318C67.6752 51.3643 67.7872 50.1969 67.8785 49.0377C68.0676 46.6385 68.286 44.2807 68.4454 42.9172L68.5545 41.9849H56.7967C49.0032 41.9849 44.9326 41.9283 44.7238 41.8171C44.5111 41.7038 44.4088 41.4773 44.4088 41.1199C44.4088 40.8288 44.3331 40.5152 44.2406 40.4231C43.9376 40.1215 44.2461 39.7718 45.1903 39.3466C47.7683 38.1857 49.8078 37.2821 50.7609 36.8787C51.3431 36.6322 52.1494 36.2835 52.5525 36.1038C52.9556 35.9241 53.6885 35.599 54.1812 35.3814C55.7148 34.7039 56.1804 34.4942 57.3933 33.9346C58.0403 33.6361 58.6061 33.3919 58.6508 33.3919C58.6955 33.3919 59.119 33.2172 59.592 33.0037C60.6044 32.5468 63.9841 31.0331 64.6866 30.7221C66.7984 29.7871 68.981 28.807 69.2741 28.6621C69.5499 28.5257 69.6498 28.2885 69.7318 27.5755C69.8906 26.1933 70.1633 22.7949 70.2505 21.1104L70.3281 19.6106H44.511C30.3116 19.6106 18.6581 19.6683 18.6143 19.7388C18.5706 19.8093 18.609 20.7395 18.6998 21.806C18.7906 22.8724 18.8956 24.1098 18.9331 24.5557C18.9707 25.0015 19.0852 26.0055 19.1877 26.7868L19.3739 28.2072L32.8921 28.2018C40.3271 28.1988 46.4271 28.2163 46.4478 28.2406C46.4684 28.2649 46.5362 28.7023 46.5984 29.2126C46.7107 30.1351 46.7082 30.1424 46.1708 30.4694C45.8736 30.6503 45.0806 31.0252 44.4088 31.3025C43.7369 31.5798 42.8798 31.9445 42.5039 32.1129C42.1281 32.2813 41.7851 32.4191 41.7417 32.4191C41.6982 32.4191 41.1876 32.638 40.607 32.9055C40.0264 33.173 39.4862 33.3919 39.4065 33.3919C39.1592 33.3919 38.3851 33.7907 38.3837 33.9188C38.3831 33.9857 38.2505 34.0404 38.0893 34.0404C37.928 34.0404 37.7265 34.1044 37.6414 34.1826C37.5563 34.2608 37.1128 34.4455 36.6558 34.593C36.1988 34.7405 35.6858 34.966 35.5157 35.0942C35.3456 35.2223 35.1077 35.3295 34.9872 35.3323C34.8666 35.3354 34.2436 35.5807 33.6027 35.878C32.9619 36.1753 32.181 36.5177 31.8675 36.6389C31.5539 36.7601 31.057 36.9911 30.7631 37.1523C30.4693 37.3134 30.1487 37.4452 30.0507 37.4452C29.8763 37.4452 28.034 38.2283 26.4053 38.9947C25.9542 39.207 25.2946 39.4831 24.9395 39.6082C24.241 39.8544 23.1401 40.3226 21.8507 40.9219C21.4028 41.1301 20.8972 41.3469 20.727 41.4037C20.4385 41.5 20.4258 41.6236 20.5386 43.2456C20.6051 44.2019 20.7258 45.6775 20.8068 46.5246C20.8878 47.3718 20.9989 48.5935 21.0537 49.2397L21.1533 50.4145L40.0697 50.4557L58.986 50.4969L58.9512 51.3886C58.9321 51.8791 58.8405 53.0282 58.7476 53.9422C58.4281 57.0872 58.2782 58.7717 58.102 61.1976C57.832 64.9139 57.631 66.5107 57.4169 66.6425C57.3096 66.7085 56.9127 66.8086 56.5348 66.865C56.1569 66.9214 55.4733 67.1038 55.0158 67.2702C54.5583 67.4367 53.8719 67.6241 53.4904 67.6868C53.1089 67.7494 52.7235 67.8556 52.6339 67.9227C52.5443 67.9898 52.2878 68.0828 52.0639 68.1293C50.7521 68.4018 47.4227 69.3428 46.9763 69.5673C46.8207 69.6456 46.5275 69.7128 46.3248 69.7167C46.122 69.7204 45.6703 69.8252 45.321 69.9491C44.7695 70.1448 44.5446 70.1407 43.6109 69.9182C43.0195 69.7773 42.3891 69.6081 42.21 69.5422C41.8825 69.4217 40.9766 69.1732 39.7669 68.8722C38.8546 68.6452 38.2052 68.4761 36.4279 68.0028C33.864 67.3201 33.5941 67.2455 33.1705 67.1033C32.9465 67.0281 32.4876 66.9188 32.1507 66.8605C31.8138 66.8022 31.5045 66.7003 31.4634 66.634C31.3508 66.4528 30.8914 61.4925 30.8908 60.4517C30.8902 59.5008 30.6351 58.5249 30.3342 58.3223C30.0841 58.1539 22.1328 58.1684 22.0278 58.3375C21.9802 58.4141 22.009 59.2714 22.0918 60.2425C22.3633 63.4292 22.7571 67.8135 22.9275 69.5475C23.0195 70.4838 23.1319 71.6905 23.1773 72.229C23.2758 73.3961 23.1671 73.3276 26.0855 74.0623C26.4438 74.1525 27.25 74.3748 27.8771 74.5563C29.1308 74.9191 30.2401 75.2019 30.9329 75.3351C31.1804 75.3827 31.4229 75.4862 31.4719 75.565C31.5209 75.6439 31.7042 75.7085 31.8793 75.7085C32.0544 75.7085 32.3249 75.7752 32.4805 75.8566C32.636 75.9381 33.203 76.0904 33.7405 76.1951C34.278 76.2998 35.0476 76.4946 35.4507 76.628C35.8538 76.7614 36.8066 77.0392 37.5681 77.2453C38.3295 77.4515 39.3923 77.7477 39.9297 77.9035C40.4672 78.0593 41.2734 78.2732 41.7214 78.3788C42.1693 78.4844 42.6457 78.61 42.78 78.6578C44.145 79.1436 44.6432 79.206 45.2562 78.968Z" fill="#18E48C"/>
</g>
<defs>
<clipPath id="clip0_64_195">
<rect width="89" height="100" fill="white"/>
</clipPath>
</defs>
</svg>
