<svg width="100" height="96" viewBox="0 0 100 96" fill="none" xmlns="http://www.w3.org/2000/svg">
<path d="M55.3593 95.9677C54.7002 95.8775 52.1346 95.4594 50.7842 95.222C50.0712 95.0967 48.6301 94.8883 47.5816 94.7589C46.5331 94.6294 45.4351 94.4635 45.1415 94.3901C44.848 94.3167 44.2303 94.2112 43.769 94.1558C43.3077 94.1003 42.6882 93.993 42.3924 93.9174C42.0966 93.8418 41.479 93.7482 41.0199 93.7094C40.5608 93.6705 39.3274 93.4968 38.2789 93.3232C37.2304 93.1496 35.206 92.8319 33.7801 92.6171C32.3541 92.4024 30.6042 92.1324 29.8912 92.0172C29.1783 91.902 27.6342 91.6664 26.4599 91.4937C25.2856 91.3211 23.8788 91.1029 23.3336 91.009C21.8842 90.7594 19.7512 90.4288 18.5297 90.2647C16.5422 89.9975 14.3669 89.6559 13.7017 89.5065C13.3375 89.4247 12.3877 89.2776 11.5908 89.1796C10.794 89.0816 9.73029 88.9322 9.22703 88.8475C6.46485 88.3828 4.31556 88.0413 2.59314 87.7935C1.09882 87.5785 0.583447 87.2749 0.236556 86.4054C0.0259512 85.8775 0.00058251 81.9752 0.00058251 50.1069C0.00058251 11.2678 -0.050636 13.6229 0.807475 13.0033C1.24949 12.6841 2.40645 12.3381 4.65193 11.8538C5.65845 11.6367 6.89373 11.3579 7.39699 11.2342C7.90025 11.1105 8.58651 10.9519 8.92202 10.8818C9.25753 10.8117 10.9046 10.4321 12.5821 10.0382C14.2596 9.6443 16.0968 9.22744 16.6648 9.11182C17.2327 8.9962 17.7573 8.86446 17.8305 8.81906C17.9038 8.77367 18.6401 8.60187 19.4667 8.4373C20.2934 8.27273 21.1757 8.07169 21.4273 7.99054C21.6789 7.90939 22.4338 7.72397 23.1048 7.57848C23.7758 7.43299 25.0454 7.1448 25.9261 6.93806C26.8068 6.73131 28.248 6.40101 29.1287 6.20405C30.0094 6.00709 31.1761 5.73703 31.7213 5.60391C32.2665 5.47079 33.536 5.1901 34.5426 4.98016C35.5491 4.77021 36.4918 4.53108 36.6374 4.44877C36.7831 4.36645 37.026 4.2991 37.1773 4.2991C37.3285 4.2991 37.827 4.20573 38.285 4.09161C38.743 3.9775 39.6667 3.76514 40.3377 3.61972C41.0087 3.47429 41.7636 3.28785 42.0152 3.20541C42.2669 3.12296 42.8159 2.99296 43.2353 2.91651C43.6546 2.84006 44.4438 2.67072 44.989 2.54019C46.6927 2.1323 47.7584 1.88994 49.3354 1.55179C50.1741 1.37194 51.2035 1.12767 51.6229 1.00898C52.0423 0.890286 52.9345 0.681113 53.6055 0.544148C54.2765 0.407183 54.9831 0.232446 55.1758 0.155844C56.2135 -0.256742 57.5303 0.17847 58.1051 1.12404C58.3835 1.58189 58.4082 1.89964 58.4088 5.02243L58.4093 8.42235L78.4684 8.42524C100.676 8.42842 98.8739 8.345 99.627 9.40479L99.9658 9.88169L99.9893 47.8127C100.015 88.7321 100.06 86.2874 99.2545 87.1476C99.0806 87.3333 98.6001 87.5579 98.1868 87.6468C97.6809 87.7556 91.0561 87.8084 77.9223 87.8084H58.4094V91.0355C58.4094 94.5836 58.3217 95.0179 57.4846 95.6157C57.0645 95.9157 56.1211 96.072 55.3593 95.9677ZM70.4216 83.3982C70.5713 83.3029 70.6056 82.3649 70.574 79.2327C70.5517 77.0094 70.4819 75.2075 70.419 75.2285C70.356 75.2495 67.6282 75.2667 64.357 75.2667H58.4093V79.2943C58.4093 81.5095 58.4551 83.3678 58.511 83.4239C58.6571 83.5704 70.1901 83.5456 70.4216 83.3982ZM95.3251 83.3676C95.6052 83.2173 95.6201 83.0077 95.6201 79.238V75.2668H85.3261H75.0322V79.2944C75.0322 81.5096 75.0779 83.3679 75.1338 83.424C75.3087 83.5993 94.9959 83.5443 95.3251 83.3676ZM95.5083 70.8319C95.5726 70.8315 95.6069 69.0289 95.5845 66.8261L95.5439 62.8208L95.0607 62.6953C94.795 62.6263 90.197 62.5876 84.843 62.6092L75.1085 62.6486L75.0677 66.6227C75.0453 68.8085 75.0537 70.6668 75.0864 70.7523C75.1368 70.884 80.9668 70.9067 95.5083 70.8319ZM70.6096 66.7973V62.7633L70.133 62.6677C69.8709 62.6152 67.3403 62.5721 64.5095 62.5721C61.6786 62.5721 59.148 62.6151 58.8859 62.6677L58.4093 62.7633V66.7973V70.8313H64.5095H70.6096V66.7973ZM19.5666 66.4753C20.1029 66.2505 20.4594 65.8274 21.3971 64.3026C22.5695 62.3961 23.2909 61.2445 23.753 60.542C24.0256 60.1275 24.2486 59.758 24.2486 59.721C24.2486 59.684 24.3782 59.4672 24.5365 59.2393C24.6949 59.0114 25.3297 58.0156 25.9472 57.0265C26.5647 56.0374 27.1881 55.0395 27.3325 54.8088C27.4769 54.5781 27.728 54.1485 27.8904 53.8541C28.3201 53.0753 29.1096 52.0187 29.2619 52.0187C29.3341 52.0187 29.9067 52.8619 30.5344 53.8923C31.162 54.9228 32.2797 56.7295 33.0181 57.9072C35.8761 62.4656 36.6718 63.7421 37.0491 64.3739C38.2599 66.4011 38.971 66.9088 40.1173 66.5643C41.1039 66.2678 41.6371 65.3686 41.4866 64.2545C41.4424 63.9271 41.2426 63.5743 39.9564 61.5533C39.3274 60.5647 38.744 59.6405 38.6602 59.4993C38.0016 58.3912 37.5014 57.5841 36.8202 56.5307C36.385 55.8577 35.5916 54.6022 35.057 53.7407C34.5224 52.8792 33.5825 51.365 32.9682 50.3759C31.5286 48.0579 31.4983 47.9783 31.8576 47.4611C32.0155 47.2338 32.381 46.6694 32.6699 46.2067C32.9588 45.7441 33.6081 44.7117 34.1128 43.9125C34.6175 43.1134 35.2147 42.1498 35.44 41.7712C35.6653 41.3927 36.497 40.0506 37.2882 38.7888C38.0794 37.527 38.8335 36.3225 38.9641 36.1122C39.0947 35.9019 39.7141 34.9063 40.3407 33.8998C40.9673 32.8934 41.5224 31.8426 41.5744 31.5649C41.8881 29.8879 39.747 28.6781 38.431 29.7887C38.1663 30.0121 37.7453 30.5455 37.4954 30.974C37.2455 31.4026 36.503 32.6135 35.8454 33.665C35.1877 34.7165 34.2253 36.2651 33.7066 37.1064C33.188 37.9476 32.3274 39.3241 31.7942 40.1653C31.2611 41.0065 30.529 42.1929 30.1674 42.8018C29.3928 44.106 29.0699 44.2151 28.5811 43.3377C28.4058 43.0229 27.2563 41.163 26.0267 39.2046C24.7971 37.2462 23.7911 35.6108 23.7911 35.5705C23.7911 35.5302 23.5667 35.171 23.2925 34.7723C23.0182 34.3736 22.3911 33.3936 21.8988 32.5944C20.0317 29.5632 19.8564 29.3825 18.7825 29.3825C18.184 29.3825 18.0031 29.4628 17.5068 29.9489C16.9882 30.4567 16.9284 30.595 16.9284 31.288C16.9284 31.9923 17.0425 32.2438 18.2152 34.1248C18.9229 35.2599 19.8618 36.7737 20.3015 37.4887C20.7413 38.2037 21.4662 39.356 21.9123 40.0492C22.3585 40.7424 22.7236 41.3734 22.7236 41.4512C22.7236 41.5291 22.775 41.6158 22.8379 41.6438C22.9009 41.6718 23.0553 41.8795 23.1811 42.1053C23.3069 42.3311 24.1182 43.638 24.9841 45.0096C25.8499 46.3812 26.5954 47.6891 26.6407 47.9161C26.696 48.1937 26.6175 48.4775 26.4008 48.7827C26.2236 49.0322 26.0786 49.2807 26.0786 49.3349C26.0786 49.389 25.8234 49.8258 25.5115 50.3054C25.1995 50.7851 24.8736 51.2924 24.7871 51.4329C24.7006 51.5734 24.1495 52.4552 23.5623 53.3925C22.9752 54.3298 22.3919 55.2642 22.2661 55.4688C20.4564 58.4122 19.2279 60.3556 17.8728 62.4192C17.0726 63.6377 17.0186 63.7785 17.0119 64.6651C17.0055 65.5045 17.0543 65.6629 17.4451 66.072C18.0558 66.7112 18.7077 66.8352 19.5666 66.4753ZM70.6096 54.2365V50.1834H64.5095H58.4093V54.2365V58.2896H64.5095H70.6096V54.2365ZM95.5845 54.2747L95.5439 50.2598L85.288 50.2205L75.0322 50.1812V54.2354V58.2896H85.3287H95.6252L95.5845 54.2747ZM70.6096 41.7695V37.6381L64.5476 37.6781L58.4856 37.7181L58.4449 41.8095L58.4043 45.9008H64.5069H70.6095L70.6096 41.7695ZM95.5845 41.8095L95.5438 37.7181H85.3261H75.1084L75.0678 41.8095L75.0272 45.9008H85.3261H95.6251L95.5845 41.8095ZM70.6096 29.306V25.2529H64.5095H58.4093V29.306V33.3591H64.5095H70.6096V29.306ZM95.5845 29.3442L95.5439 25.3294L85.288 25.29L75.0322 25.2507V29.3049V33.3591H85.3287H95.6252L95.5845 29.3442ZM70.574 16.8025L70.6146 12.7112H64.512H58.4093V16.7388C58.4093 18.954 58.4559 20.8131 58.5128 20.8701C58.5696 20.9272 61.2975 20.9559 64.5748 20.9339L70.5334 20.8939L70.574 16.8025ZM95.5439 16.8408V12.7877L85.288 12.7483L75.0322 12.709V16.7377C75.0322 18.9535 75.0784 20.8128 75.1349 20.8695C75.1914 20.9261 79.8066 20.9548 85.3908 20.9332L95.5439 20.8939V16.8408Z" fill="#18E48C"/>
</svg>
