<svg width="100" height="89" viewBox="0 0 100 89" fill="none" xmlns="http://www.w3.org/2000/svg">
<path fill-rule="evenodd" clip-rule="evenodd" d="M28.4684 18.8156C28.1228 15.8278 30.8173 17.0943 30.4731 18.8956C29.9674 19.3757 29.0334 18.982 28.4684 18.8156ZM31.6758 18.2553C32.3545 18.1861 33.0014 18.0846 33.1997 17.5352C32.2609 16.9578 30.8582 18.3826 31.4353 19.056C31.7556 19.0288 31.4723 18.3994 31.6758 18.2553ZM22.6944 20.0959C23.2596 19.8336 24.1882 19.9326 24.4588 19.3759C22.7766 18.7912 19.7473 19.2228 19.2459 20.3361C20.5283 20.257 21.6007 19.2415 22.6944 20.0959ZM18.9252 20.4164C18.5608 20.34 18.4203 20.7531 18.6046 20.9763C18.8894 20.9669 18.9273 20.7115 18.9252 20.4164ZM18.043 22.017C17.9917 21.2536 16.1412 20.6441 15.9583 21.6969C16.1183 22.2947 17.6109 22.6792 18.043 22.017ZM14.9158 21.2969C14.5336 21.3147 14.3371 21.52 14.1136 21.6969C14.4044 21.866 15.0487 21.8055 14.9158 21.2969ZM13.9538 23.4572C15.3663 23.3582 15.7962 24.6544 17.0005 24.4976C17.225 23.1024 14.3518 21.1833 13.9538 23.4572ZM33.039 30.4192C32.6179 29.0244 33.9075 27.8273 33.119 26.7377C32.0275 26.8246 31.0834 31.8805 32.638 31.8602C33.7543 31.8448 34.1478 28.7867 34.2415 27.779C33.4243 28.2427 33.7803 29.8788 33.039 30.4192ZM19.6471 29.8597C19.6714 29.6482 19.5359 29.5966 19.3263 29.6189C19.3316 29.8349 19.5095 30.0038 19.6471 29.8597ZM23.5766 32.1803C23.5921 31.6845 23.5725 31.224 23.1758 31.14C22.8739 31.1058 22.8919 31.3902 22.6944 31.4605C22.8046 31.8835 23.0285 32.1942 23.5766 32.1803ZM19.7273 34.7413C21.2649 34.914 22.2944 36.0209 23.7369 36.0213C22.5866 35.2485 21.3915 34.5209 19.5668 34.4211C19.5087 34.6394 19.7261 34.5822 19.7273 34.7413ZM31.8363 35.9416C31.7167 35.3938 31.4785 34.9642 31.195 34.5808C31.2993 35.1433 31.4431 35.6664 31.8363 35.9416ZM23.015 37.702C22.0085 36.358 20.405 35.1868 18.6046 34.9009C18.8588 37.0477 21.2502 37.0632 23.015 37.702ZM20.2888 38.1818C19.6015 37.0274 18.4232 36.3623 17.0005 35.9416C17.8001 36.9333 18.5326 38.4113 20.2888 38.1818ZM16.5997 37.062C16.8735 37.5364 17.5618 38.0213 17.4019 38.6624C16.6988 38.4573 16.3569 37.8912 15.6375 37.7022C16.0195 38.2316 17.4774 40.5786 18.3637 40.5036C18.9295 40.4548 19.1852 39.8316 19.0854 38.8229C18.652 37.8943 17.2721 37.4846 16.5997 37.062ZM20.6895 39.1426C20.8678 39.6318 20.9304 40.2359 21.5719 40.2626C21.4627 39.7051 21.1363 39.3635 20.6895 39.1426ZM20.1281 39.383C19.8291 39.3504 19.6578 39.4463 19.6473 39.7025C19.7371 39.7201 19.7721 39.7912 19.8074 39.8625C20.0637 39.8525 20.1608 39.6814 20.1281 39.383ZM33.841 41.2232C33.9245 40.771 34.0095 39.8996 33.841 39.4625C33.738 39.9121 33.3508 40.9233 33.841 41.2232ZM28.2277 39.5426C28.2889 40.0156 28.0598 40.7774 28.4682 40.9038C28.486 40.5536 28.5678 39.765 28.2277 39.5426ZM31.9965 41.3834C31.7639 41.1776 31.43 41.4886 31.2748 41.3037C31.1108 40.7739 31.1787 40.0128 30.7136 39.783C30.6605 39.783 30.6067 39.783 30.5535 39.783C29.893 41.1481 29.9582 44.0807 31.1146 44.8242C31.3329 45.1935 31.3543 45.7591 31.9165 45.785C32.3787 45.4189 32.4922 44.7063 32.5582 43.9438C31.5545 43.7335 32.4895 42.007 31.9965 41.3834ZM34.4026 42.2632C34.5014 41.5547 35.1085 40.5241 34.6431 39.783C34.4895 40.4843 34.1987 41.4726 34.4026 42.2632ZM20.2888 42.9043C20.4166 42.5385 20.3162 41.9181 20.0481 41.7037C19.861 42.054 19.7522 42.861 20.2888 42.9043ZM21.732 43.224C22.0559 43.4343 22.0807 43.9427 22.5342 44.0243C23.0983 43.3056 22.0281 42.039 21.732 43.224ZM35.4449 44.8242C35.4455 45.0695 35.1233 45.405 35.3648 45.6243C35.4112 45.4261 35.6552 45.0137 35.4449 44.8242ZM36.1664 47.9454C36.1631 47.5759 36.2116 47.1544 36.0063 46.9855C35.9703 47.2704 35.7588 47.9014 36.1664 47.9454ZM25.9823 51.227C26.0298 51.525 26.0786 51.824 26.3831 51.867C26.5797 51.5924 26.4345 51.1061 25.9823 51.227ZM29.5909 51.6274C29.7024 51.8387 30.023 52.2584 30.2322 52.1066C30.0467 51.9701 29.8326 51.4424 29.5909 51.6274ZM37.2089 52.5077C36.9836 53.4606 37.5169 54.3286 37.9308 54.9085C38.1002 53.9795 38.0844 52.6491 37.2089 52.5077ZM39.2141 58.6686C39.3353 58.4266 39.3781 57.681 39.1339 57.5496C38.9227 57.8386 38.7345 58.5305 39.2141 58.6686ZM42.8219 62.5107C42.7059 61.9227 42.2443 61.2876 41.7799 61.3097C41.9423 61.8942 41.9705 62.6139 42.8219 62.5107ZM43.5444 63.6307C43.5478 64.001 43.4996 64.4234 43.7045 64.5906C43.7149 64.208 43.7094 63.8393 43.5444 63.6307ZM17.0808 63.711C17.0819 64.0041 17.2391 64.1399 17.4019 64.2713C17.3698 64.009 17.3322 63.7542 17.0808 63.711ZM46.4313 68.1119C46.2339 66.6029 45.4386 65.6895 44.4266 64.9917C44.5714 66.5535 45.3384 67.4963 46.4313 68.1119ZM59.3424 76.035C59.2937 75.9897 58.9616 75.8483 58.9413 76.035C59.0618 76.1276 59.279 76.316 59.3424 76.035ZM100 81.957C100 82.2511 100 82.5435 100 82.8374C99.8697 83.1079 99.8274 83.4653 99.7591 83.7975C97.5292 85.2266 93.3397 84.7005 91.4991 86.5188C88.2707 84.7833 85.2703 87.517 81.8768 87.7997C81.3161 87.8458 80.6926 87.7527 80.1114 87.7997C78.1063 87.9612 76.1482 88.4292 74.0976 88.5997C71.9948 88.7744 69.8878 88.9025 67.6825 89C66.88 89 66.0786 89 65.2768 89C55.3307 88.4788 45.4967 87.1436 38.1717 83.8779C34.5198 82.2496 31.1584 80.2519 28.0676 77.8756C25.0598 75.5644 21.9723 72.9947 19.8074 70.1134C17.5025 67.0452 15.1964 64.0615 13.1514 60.6707C11.1786 57.3978 9.3346 53.9504 7.6986 50.1066C6.08471 46.3164 4.93481 42.5659 3.84891 37.9426C3.13913 34.9187 2.39001 31.495 1.1225 28.6596C0.62896 27.5554 0.0544029 26.6516 0 25.6181C0 25.3785 0 25.1377 0 24.8981C0.395497 21.5368 3.01506 19.5856 6.0945 18.6556C6.86553 18.423 7.61523 18.2008 8.33989 17.7753C8.38705 17.7481 8.84908 17.701 8.66102 17.4554C7.28901 17.1259 6.16025 19.1417 4.65145 18.5758C3.31192 18.0731 4.08315 16.0034 5.53364 15.3747C6.21074 15.0812 7.55516 15.0049 8.17962 14.6545C9.25632 14.0507 9.74497 12.7748 9.54321 11.6134C9.42364 10.9272 8.70995 10.5659 8.74126 10.0128C8.78509 9.24163 10.1669 8.571 10.826 8.09214C11.6324 7.50647 12.587 6.77491 12.5101 5.85138C12.4291 4.88664 11.2921 4.57925 10.7457 3.85082C9.88802 2.70758 9.75202 0.998787 11.1465 0.329135C12.6086 -0.372936 15.3324 0.00963924 15.6375 1.84987C15.9064 3.47176 14.7526 4.08966 15.2361 5.29089C16.1371 7.52619 23.1439 3.98791 21.4115 8.65224C22.9524 11.0627 28.9741 9.00064 29.1099 12.8137C31.6214 12.8641 32.7756 14.766 34.8034 15.5347C35.3468 15.7405 35.994 15.7405 36.5678 15.9346C39.9877 17.0947 44.2257 18.3391 45.6294 21.6166C44.3609 22.4695 42.6298 21.8984 41.139 21.3766C39.8421 20.9222 37.9517 20.0223 36.648 20.5761C35.3554 21.1255 35.4245 23.3293 35.6055 25.5375C36.0869 31.4161 36.3693 37.4797 37.2091 42.7434C38.3818 50.0908 40.8887 55.9755 44.4268 60.5899C47.8495 65.054 51.8704 69.7287 57.0966 72.9943C61.5066 75.7489 66.4612 77.9223 72.7345 79.3159C73.6649 79.5231 74.7895 79.9754 75.3005 79.8762C76.058 79.7309 77.6881 77.5325 78.2684 76.9957C79.6478 75.7157 81.504 73.9249 83.4799 75.4745C83.2114 77.6081 81.2958 78.0979 80.8335 80.0369C82.0216 80.7913 83.2815 80.1084 84.7635 80.1961C86.4879 80.2984 87.8102 81.2852 89.2548 81.0765C90.1767 80.9433 90.6382 80.258 91.3396 79.7965C92.9329 82.1211 99.0761 79.095 100 81.957ZM82.5975 76.035C82.5635 75.7769 82.7034 75.3431 82.4374 75.3156C82.2061 75.4326 81.9776 76.1682 82.5975 76.035ZM42.2617 19.6959C43.0472 20.1654 43.7388 20.7294 44.4266 21.2971C44.8407 20.0803 43.6523 19.3018 42.2617 19.3761C42.2617 19.4823 42.2617 19.5891 42.2617 19.6959ZM63.8332 78.6759C64.1391 78.7402 64.3604 78.8011 64.3947 78.4363C64.1089 78.4178 63.9146 78.4892 63.8332 78.6759ZM52.7663 71.6332C52.7393 72.0101 53.5012 72.0173 53.6493 71.9533C53.5239 71.7031 53.1438 71.3783 52.7663 71.6332ZM50.8417 70.113C50.9751 70.2478 51.3127 70.1763 51.5634 70.1933C51.5902 69.9002 51.4738 69.7484 51.4031 69.5525C50.9816 69.5065 50.8652 69.7629 50.8417 70.113ZM35.4449 37.3815C35.2273 37.1975 35.0693 37.5346 34.9637 37.3815C35.2249 35.3962 35.6447 32.3395 34.8034 30.66C34.5954 30.4787 34.2662 30.7236 34.1621 30.5795C34.722 29.2457 35.1001 26.4637 34.8836 24.8176C34.8075 24.2374 34.5055 23.2055 34.1621 22.977C33.2991 22.4036 32.5138 23.2848 31.9163 23.4572C31.5404 23.5666 31.1224 23.4885 30.7136 23.5369C29.0966 23.7314 27.3807 24.2126 26.3032 24.7372C26.8649 25.1108 27.6609 25.2496 27.9067 25.9374C26.5095 25.8388 25.4195 25.433 24.2177 25.1375C24.3459 26.943 22.1271 26.3772 20.7698 26.4983C21.2387 26.5085 21.3138 26.7346 21.3312 27.0582C21.387 28.1204 17.8845 29.3792 16.68 28.5793C14.962 29.9616 17.4359 31.3736 17.3215 33.1409C16.9837 33.3907 16.8277 33.8215 16.5195 34.1004C14.8121 34.1418 13.0162 34.4845 13.3113 36.2615C13.0806 36.1271 12.7166 36.0375 12.4291 36.181C11.9927 37.303 12.7254 38.5208 13.7127 38.7425C13.9614 38.6702 14.0193 38.4083 14.3542 38.4224C16.5843 38.8479 17.3694 40.3239 17.2412 43.1433C17.2189 43.6288 17.2672 44.2624 16.9205 44.5844C15.6549 44.4979 14.4815 41.3807 16.5193 41.3035C16.0307 40.586 15.6606 39.5156 14.7549 39.5424C13.7168 39.5732 13.2508 41.2106 12.5095 41.7833C13.578 42.3725 16.0874 43.9985 14.033 45.0644C15.05 45.2166 15.6176 45.6191 16.0377 46.1842C16.7379 47.1279 16.7156 48.5418 17.2408 49.3059C18.3036 50.853 18.8647 47.9182 20.1273 49.1452C20.4256 49.2476 19.996 48.8562 19.967 48.8259C18.8839 47.6589 17.2318 46.7023 16.5992 45.3046C17.0855 45.0822 17.7373 45.3249 18.2027 45.3843C18.3866 44.4442 17.732 43.3802 17.9622 42.6627C18.1279 42.1483 18.4338 42.3749 18.7643 42.1831C18.9586 42.0702 18.8066 41.65 19.1655 41.7831C19.1633 42.8819 18.4999 44.7309 19.2451 45.5443C20.3334 45.7392 20.6477 43.8716 21.5711 43.8638C22.087 43.8593 22.5745 44.7654 22.9342 45.2242C23.3662 45.7747 23.9535 46.4512 23.8163 47.0644C23.5275 48.3572 21.3518 47.373 20.6087 46.8242C21.0616 48.6181 23.848 48.8966 23.9766 51.2266C23.9913 51.4866 23.8598 51.8186 23.8966 52.1062C24.0541 53.3358 25.203 54.2495 26.3823 53.4674C26.5557 53.9084 26.5784 54.4995 27.0244 54.6677C27.415 54.338 27.2762 53.4785 27.5052 52.9866C28.9044 53.2789 29.6349 53.9513 30.0711 55.0672C30.2872 55.6193 30.2314 56.6426 31.1136 56.6678C31.2486 55.3035 30.1774 54.4581 29.9913 53.1465C30.7101 54.3038 33.3028 55.556 33.1991 57.3883C33.1302 58.5967 31.6911 58.7282 30.312 58.9086C31.6263 59.3593 32.1768 60.8283 33.5999 61.3091C33.9823 61.4392 34.4734 61.3279 34.8828 61.4698C35.9241 61.8313 37.5891 63.9616 37.1286 65.3112C34.9098 66.4271 33.1787 63.411 30.713 63.471C31.7527 64.7939 33.4535 65.2341 34.883 65.8717C36.4216 66.5572 37.9621 67.2594 39.4541 67.9521C42.9711 69.5846 45.4123 71.7205 47.7141 74.4344C46.117 75.3035 41.2764 73.8579 44.1855 72.833C43.1736 72.7989 42.1026 72.1655 41.218 72.5139C41.6869 75.5675 45.7127 75.0713 48.7566 75.5544C48.4795 76.0782 48.0889 76.4891 47.7939 76.9951C48.0286 77.1332 48.3528 77.1835 48.7566 77.155C48.5616 77.4669 48.0542 77.4677 48.0344 77.9549C48.4243 78.473 49.1959 78.6103 49.7186 78.9952C51.7794 77.5204 52.0106 80.8663 53.3272 80.9159C54.5714 80.9622 54.81 79.178 56.0544 78.9952C55.7417 79.6442 55.1297 79.9934 54.8516 80.6763C56.07 80.3824 56.4174 79.7278 57.4166 79.4753C60.9974 78.5713 63.9328 81.5477 66.8794 81.8768C67.9389 81.9945 68.9921 82.5882 69.9269 82.7571C71.1355 82.9747 71.8786 82.5777 72.8136 82.1172C71.3895 80.7902 68.1197 81.3069 66.96 79.7157C67.0048 79.4405 67.1935 79.3089 67.3612 79.1562C63.6078 79.9789 61.2446 77.7343 59.6626 75.6349C55.0321 74.4413 50.9697 72.6795 48.9965 68.8327C48.9018 68.4704 49.3521 68.654 49.2378 68.2722C47.6098 66.4644 45.9826 64.6291 44.6668 62.5102C44.212 61.7786 43.9006 60.8592 43.3834 60.2696C43.0558 59.896 42.5061 59.6903 42.1807 59.3087C41.8243 58.8904 41.7758 58.3667 41.2178 58.189C41.0034 58.5081 41.1472 59.1845 40.9777 59.5492C40.592 58.0038 39.7327 56.5362 38.0908 56.5079C38.0603 55.384 38.9701 55.1989 39.4539 54.5872C38.8171 53.823 38.6636 52.8606 38.3314 51.7067C37.5235 48.9025 36.856 45.9731 36.1658 43.3834C35.2511 43.7241 35.0087 44.7359 34.5623 45.5443C34.6063 44.3881 34.6605 43.2414 35.2842 42.6627C35.5693 42.6985 35.6006 42.9877 35.765 43.1432C35.9157 42.5979 36.4327 42.0894 36.1658 41.3828C35.9588 41.0637 35.3535 41.2125 35.204 41.2229C35.5997 40.2564 35.932 38.5023 35.4449 37.3815ZM67.6823 84.8385C68.3757 84.5429 68.9997 84.179 69.2854 83.4774C68.5318 83.6658 67.4692 83.95 67.6823 84.8385ZM67.7622 83.2377C67.2984 83.4942 66.7766 83.6949 66.4796 84.1181C67.1444 84.1578 67.9232 83.4918 67.7622 83.2377ZM65.2766 84.438C65.7307 84.3171 66.2166 83.8492 66.1588 83.4774C65.6316 83.5301 64.8162 83.9053 65.2766 84.438ZM65.5974 82.597C64.8757 82.3695 64.2864 82.9333 64.2334 83.6381C64.8765 83.4789 65.3117 83.1128 65.5974 82.597ZM63.3514 82.7577C62.6465 82.8804 62.1193 83.1799 61.9078 83.7973C62.7694 84.1384 63.2105 83.3994 63.3514 82.7577ZM62.2291 84.8385C62.4277 84.8499 62.6179 84.853 62.6303 84.6778C62.5099 84.5509 62.1729 84.5606 62.2291 84.8385ZM63.5125 81.3967C62.3904 81.3108 61.0483 82.0375 61.7481 82.9973C62.4953 82.6222 63.252 82.2576 63.5125 81.3967ZM57.9786 82.9179C58.6794 83.0161 58.8626 82.2162 59.3426 82.3566C59.6211 82.532 59.4518 83.1549 59.9033 83.1575C60.9522 82.9446 61.3299 81.5163 60.705 80.5166C59.2914 80.7648 57.998 81.5413 57.9786 82.9179ZM58.2992 80.837C57.8735 81.0522 57.4203 81.2391 57.1771 81.6369C57.7017 81.6143 58.4831 81.0368 58.2992 80.837ZM56.0548 81.2374C56.0996 81.4502 55.7244 81.6444 55.9734 81.7969C56.0401 81.6963 56.4618 81.3007 56.0548 81.2374ZM54.6111 83.1573C54.5859 83.2663 54.4965 83.31 54.5315 83.4774C54.6374 83.4774 54.7448 83.4774 54.8522 83.4774C54.874 83.2678 54.8219 83.1337 54.6111 83.1573ZM53.4084 82.7577C53.0031 82.7804 52.8499 83.0542 52.8468 83.4774C53.1959 83.4 53.5141 83.2905 53.4084 82.7577ZM45.308 78.6759C44.8139 78.6543 44.6632 78.7304 45.2284 78.8369C45.7667 78.9359 46.7164 78.9878 47.073 78.8369C46.6497 78.832 45.556 78.6875 45.308 78.6759ZM47.7145 77.396C47.2949 77.0777 46.4515 77.3083 46.0305 77.4757C46.2734 78.1416 47.466 77.846 47.7145 77.396ZM45.1487 83.3977C47.1487 84.4437 49.9025 85.5855 52.7663 85.2381C50.6853 84.2212 47.5906 83.7875 45.1487 83.3977ZM42.1812 82.5173C42.3728 82.7798 42.8253 82.7813 43.1431 82.9179C43.7351 82.3468 42.4339 82.0252 42.1812 82.5173ZM34.6429 76.035C34.1016 76.0821 33.5126 76.0805 33.3599 76.5158C33.8756 76.7066 34.6218 76.5881 34.6429 76.035ZM33.119 78.1157C33.3075 78.2861 33.6541 78.4892 33.7607 78.1157C33.6778 78.0311 33.1883 77.9508 33.119 78.1157ZM34.0815 71.3133C34.1543 70.9787 33.5157 70.8522 33.4402 71.1535C33.6159 71.2441 33.7682 71.3596 34.0815 71.3133ZM35.1243 74.0339C35.1204 73.9241 35.1621 73.8585 35.2044 73.7943C34.9654 73.548 34.4823 73.5043 34.0815 73.6343C34.1457 74.0192 34.7879 74.18 35.1243 74.0339ZM35.2046 79.1568C35.3071 79.2657 35.583 79.2657 35.6856 79.1568C35.7233 78.905 35.5854 78.8294 35.4451 78.7556C35.373 78.8978 35.2513 78.9894 35.2046 79.1568ZM37.6907 69.9531C37.4294 69.1995 36.5775 69.3983 36.0063 69.153C35.0883 68.7583 34.3046 67.8162 33.1192 67.7928C33.066 67.7928 33.0122 67.7928 32.9594 67.7928C33.9903 69.0051 35.3547 70.3079 37.6907 69.9531ZM33.5202 66.9929C32.7717 66.4853 31.9517 66.0492 30.8739 65.8723C31.2165 66.7306 32.5504 67.0263 33.5202 66.9929ZM36.0061 70.753C36.5683 71.3395 37.274 71.7828 38.4922 71.713C38.0239 71.086 36.9049 70.6839 36.0061 70.753ZM39.0535 74.3547C38.2278 73.7837 36.9292 72.8573 35.8458 73.0738C36.4725 73.8894 37.7321 74.5 39.0535 74.3547ZM36.0061 77.396C35.9867 77.5099 35.8742 77.5302 35.8458 77.6349C36.0435 77.8922 36.341 77.4497 36.0061 77.396ZM37.8505 79.7967C37.9186 80.102 38.2132 80.1816 38.4922 80.2767C38.6008 80.0916 38.8143 80.0111 38.7327 79.6368C38.5378 79.5198 37.8368 79.4524 37.8505 79.7967ZM39.3744 76.2754C39.1261 76.1237 38.2204 75.954 38.0108 76.2754C38.3998 76.433 39.164 76.8408 39.3744 76.2754ZM39.6149 73.5539C39.6951 72.9586 39.0204 72.9561 38.7327 73.1535C38.7597 73.5539 39.2905 73.4517 39.6149 73.5539ZM40.4969 69.2327C40.1347 68.6868 39.1286 68.7843 38.412 68.5927C37.8871 67.9349 36.6321 67.6961 35.5251 67.8725C36.793 68.7153 38.2351 69.3828 40.4969 69.2327ZM40.3366 76.9152C40.6811 77.2118 41.221 77.3132 41.6998 77.4757C41.7255 77.2872 41.8263 77.1751 41.7799 76.9152C41.5464 76.6465 40.5333 76.5076 40.3366 76.9152ZM33.5202 63.9506C33.6005 63.5772 33.3803 63.504 33.039 63.5511C32.9181 63.9653 33.3181 63.8588 33.5202 63.9506ZM35.4449 64.9115C35.2106 64.8521 35.2895 64.4802 34.9637 64.5111C34.6682 64.7816 35.2004 65.1933 35.4449 64.9115ZM29.9116 65.4717C29.6455 64.8845 29.0457 64.6289 28.6287 64.191C29.4106 63.0605 27.6658 62.5976 27.3455 61.7903C27.3418 61.5468 27.5148 61.4792 27.586 61.3095C26.9122 60.9156 26.1341 60.625 25.7414 59.9501C26.0516 59.7261 26.8784 60.0167 27.1846 59.7894C26.6989 59.5806 26.1745 59.4109 25.9819 58.909C26.2631 58.2559 27.4063 58.4639 27.6658 57.789C26.2844 57.4845 24.912 56.752 23.4154 56.8284C23.4324 57.3984 23.9408 57.4779 24.1371 57.8687C23.6934 57.672 23.3345 57.3886 22.6938 57.3886C22.6459 57.7833 22.9021 57.8743 22.8545 58.269C22.4171 58.3048 22.1954 58.1263 21.7314 58.1895C22.0621 58.926 22.9103 59.1469 23.1753 59.9503C22.8473 60.0331 22.4021 59.8202 22.2931 59.9503C23.1396 60.652 24.376 61.3917 24.8588 62.1901C24.0711 62.044 23.6203 61.5599 22.8545 61.3902C23.4956 62.657 25.0567 62.921 26.2224 63.5511C27.4157 64.1957 28.485 65.2354 29.9116 65.4717ZM28.1472 66.4318C28.4825 66.6146 29.1498 67.195 29.5909 66.7527C29.2191 66.5882 28.6341 66.2148 28.1472 66.4318ZM27.506 66.0312C27.2803 65.6666 26.1291 65.4725 25.8222 65.7112C26.3455 65.8615 26.8386 66.2668 27.506 66.0312ZM26.0623 66.2717C26.0371 66.3804 25.9484 66.4242 25.9823 66.5925C26.1234 66.5462 26.4533 66.6882 26.4635 66.5121C26.339 66.4228 26.2962 66.2521 26.0623 66.2717ZM25.0199 55.6279C24.8011 54.8758 24.5089 54.0517 23.8974 53.4676C23.568 53.1526 23.249 53.159 23.0152 52.7464C22.3954 51.6582 22.6925 50.1219 21.8925 48.9863C21.7032 48.9247 21.3383 48.8279 21.1708 48.9863C21.1858 49.511 22.4062 50.7552 21.5721 51.387C19.7279 51.46 19.0179 49.9949 17.2418 50.2662C16.8418 51.3001 18.2559 51.8313 17.8829 52.5874C20.434 53.4045 22.46 55.1748 25.0199 55.6279ZM19.2459 58.0286C19.7171 58.3868 20.3984 58.9594 21.0103 58.909C20.5256 58.5663 20.0796 57.7591 19.2459 58.0286ZM18.3637 57.3092C18.1557 56.6633 17.795 56.1696 17.0005 56.1089C17.1622 56.8006 17.9154 56.9032 18.3637 57.3092ZM17.0005 59.3898C17.4299 59.6829 17.8563 60.4016 18.2837 60.4301C17.9712 60.0216 17.5903 59.2558 17.0005 59.3898ZM17.5622 53.8674C17.6036 53.7488 17.6804 53.666 17.7224 53.5473C17.5168 53.2647 17.0097 53.419 16.9207 53.708C17.0784 53.817 17.3786 53.7846 17.5622 53.8674ZM29.9921 57.0686C29.9807 56.38 29.2142 55.9804 28.6287 56.3489C28.8142 56.8575 29.3733 56.9924 29.9921 57.0686ZM22.4533 46.5859C22.4668 46.4535 21.9596 46.4535 21.9725 46.5859C22.0825 46.6102 22.4563 46.9472 22.4533 46.5859ZM19.3265 46.2651C19.2195 46.2651 19.1124 46.2651 19.0054 46.2651C18.8952 46.368 18.9261 46.6135 18.9252 46.8246C19.0717 46.8465 19.3749 47.1136 19.4868 46.9056C19.2884 46.8359 19.5099 46.3487 19.3265 46.2651ZM13.3115 46.1846C13.5772 46.7881 14.653 46.7433 14.8354 46.1051C14.379 45.9288 13.7068 46.0514 13.3115 46.1846ZM13.5526 43.9438C13.2424 43.9284 12.9614 43.9413 12.75 44.0243C12.8125 44.3735 13.5504 44.3114 13.5526 43.9438ZM14.2739 31.0599C13.8618 31.2499 13.0023 30.8695 12.5902 31.0599C12.9551 32.5017 15.6602 31.7255 15.4772 30.5795C15.3219 29.6073 12.7495 29.8481 11.8684 29.9395C12.5512 30.4317 13.6365 30.5223 14.2739 31.0599ZM11.0665 32.5803C11.2174 32.8033 11.632 32.7627 11.8684 32.9003C11.9148 32.7336 12.0675 32.6722 12.0287 32.4203C11.8183 32.3094 11.0614 32.2221 11.0665 32.5803ZM15.1565 32.2604C15.1132 32.435 14.962 32.7781 15.2361 32.8207C15.4271 32.6863 15.3872 32.3764 15.1565 32.2604ZM17.4019 27.4586C17.3808 27.2246 17.5829 27.2133 17.5622 26.9785C17.2361 26.9467 17.0031 27.0076 17.0005 27.2984C17.1532 27.3332 17.2019 27.4709 17.4019 27.4586ZM17.3217 9.69255C17.0023 11.6455 18.7655 14.0079 20.8498 13.2935C20.9471 12.5565 20.6101 12.2528 20.6093 11.6132C21.1412 11.4845 21.4543 11.9943 21.7318 11.8533C20.9518 10.4446 18.8768 10.328 17.3217 9.69255ZM16.4391 7.85194C17.144 7.99118 18.2502 7.92068 18.5244 7.37172C17.9919 7.01668 16.3943 6.92157 16.4391 7.85194ZM14.5144 2.24982C14.6686 0.6955 12.7653 -0.163389 11.6279 0.88962C10.917 1.54736 10.6082 3.13586 11.708 3.69068C11.5831 3.28135 11.2185 3.11203 11.3072 2.49042C12.143 2.01352 13.6755 2.72301 14.5144 2.24982ZM13.9538 7.37152C14.1577 7.25532 14.4639 7.24146 14.4348 6.8915C14.1882 6.9163 13.768 7.1815 13.9538 7.37152ZM12.2692 13.2935C13.2692 13.3172 14.0232 12.7543 14.9958 12.7336C15.8377 12.7159 16.6401 12.9658 17.6422 12.8936C16.9265 10.7975 13.4493 12.628 12.2692 13.2935ZM10.7457 16.975C12.6379 16.7349 15.2741 15.4925 17.8027 15.7747C18.7565 15.8809 19.5919 16.4166 20.1281 16.815C19.8547 16.5238 19.5308 15.3288 20.1281 15.1347C21.4441 15.3849 21.488 17.8663 23.0952 17.5354C23.914 17.3669 24.1633 15.7819 23.7369 14.8144C24.3488 15.2441 24.6641 15.9698 25.5013 16.175C25.3103 15.4052 24.7551 14.9988 24.3788 14.4143C24.6152 14.1171 24.9248 13.8921 24.8596 13.2935C22.5647 13.0734 20.5277 14.3096 18.3639 14.7342C16.6847 15.0642 15.435 15.3911 13.954 15.7745C12.8405 16.0626 11.6015 16.2647 10.7457 16.975ZM4.00957 33.5409C3.8994 33.6428 3.86985 34.019 4.08961 34.0209C4.15556 33.9629 4.30488 33.4671 4.00957 33.5409ZM6.81582 24.0177C3.2994 24.5745 7.04753 28.3065 9.14184 27.3791C9.40701 26.9727 9.32462 26.6003 9.30212 26.0179C10.5223 26.1372 11.4403 25.5441 12.5101 25.7783C12.6827 26.1503 12.3563 26.4653 12.2694 26.8182C15.908 26.588 17.7095 23.7349 21.6516 23.2973C22.1414 23.2428 22.6997 23.3293 23.2559 23.2973C24.9159 23.2006 26.7549 22.8936 28.4684 22.5769C30.1496 22.2668 31.6868 21.6498 33.1192 21.2969C34.9171 20.8534 37.6521 19.6817 37.2897 17.2952C37.2482 17.0236 37.0593 16.7795 36.8885 16.4949C27.332 15.5728 20.1868 19.3114 12.6706 20.8165C11.7677 20.9972 10.6698 20.8771 9.9438 21.6164C10.2064 22.2613 11.1293 22.2474 11.5473 22.7368C11.3383 22.9813 10.8215 22.9188 10.7457 23.2973C10.9227 23.9742 11.9281 23.8234 12.0287 24.578C10.4324 25.7009 7.08529 24.2687 7.85868 22.017C5.44675 22.5445 1.93502 23.0686 1.92465 25.7783C1.91976 26.9725 2.63306 28.077 3.44793 28.7393C2.89588 26.2181 3.83423 22.49 6.81582 24.0177ZM9.78333 38.9827C9.85632 38.4407 8.96376 38.0613 8.66083 38.4228C8.95632 38.6878 9.41895 38.7856 9.78333 38.9827ZM6.97649 40.023C7.54361 41.9907 7.72815 44.3415 9.22188 45.3849C8.99703 43.075 8.1757 41.3605 6.97649 40.023ZM10.3446 37.9424C10.5943 36.8126 8.93343 36.3701 8.8211 37.1419C8.72306 37.8141 9.78509 37.7359 10.3446 37.9424ZM10.6655 35.7813C10.3035 35.3862 9.39487 35.1413 8.74106 35.3012C8.97178 35.8678 10.3913 36.7062 10.6655 35.7813ZM9.70329 32.2604C10.0655 32.035 10.4499 31.8311 10.5049 31.2995C10.0395 30.9519 8.9254 30.9029 8.8211 31.4605C8.74224 31.8819 9.30818 32.0528 9.70329 32.2604ZM10.7457 33.6206C10.7808 33.3456 10.714 33.1724 10.6655 32.9802C10.2542 32.9701 10.0622 33.1784 10.024 33.5409C10.2236 33.6081 10.4536 33.6454 10.7457 33.6206ZM5.13227 33.2206C5.07043 33.0156 5.05203 32.767 4.89176 32.6605C4.69235 32.8759 4.68472 33.2628 5.13227 33.2206ZM5.93422 27.779C5.57434 27.639 5.04166 27.7884 4.89176 28.0989C5.06006 28.2505 5.30233 28.3296 5.53325 28.4186C5.61426 28.1538 5.97688 28.1684 5.93422 27.779ZM6.81582 38.1023C6.60839 37.6426 6.58236 37.0018 6.17473 36.7421C5.07669 36.8979 6.16455 38.4722 6.81582 38.1023ZM8.33969 46.7449C9.12266 48.634 9.94908 50.6757 11.6279 51.5463C10.3726 50.1525 10.0763 47.8463 9.22188 46.1846C8.92638 45.6112 8.45496 45.1654 8.17942 44.5846C7.53109 43.217 7.23226 41.6213 5.93422 40.9832C6.44577 42.9957 7.54146 44.817 8.33969 46.7449ZM30.393 76.7555C29.9077 75.106 28.605 74.271 26.7842 73.9544C26.3341 72.8832 25.0351 72.6598 24.7795 71.3937C24.7381 71.1338 25.2762 71.042 25.1007 70.9137C22.66 71.375 22.5739 68.7934 21.4117 67.7123C18.4788 67.7652 19.0244 64.144 17.4021 62.2711C16.9387 61.7352 16.4792 61.6116 15.9584 61.0709C15.1571 58.5924 13.0657 57.3351 11.8686 55.1491C10.8054 53.2065 10.5818 51.0153 8.82149 49.6266C10.2142 54.3322 13.198 58.3098 15.8784 62.2713C18.024 65.4409 19.4831 68.4597 21.8927 70.9936C22.7115 71.8535 23.6359 72.4294 24.6195 73.2342C26.2925 74.6032 27.4445 77.1427 30.393 76.7555ZM30.0719 71.3133C29.9856 70.9705 29.367 70.7393 29.0294 70.9137C29.3404 71.0844 29.6821 71.2225 30.0719 71.3133ZM33.039 69.2327C32.4958 68.6009 31.3584 68.3603 30.3126 67.9525C29.0153 67.4457 27.1645 66.9659 26.223 67.5522C26.3177 68.3374 26.9445 68.5925 27.3455 69.0725C28.4596 69.2438 29.0971 69.7863 30.1519 69.8724C31.3952 69.975 32.5562 69.9197 33.039 69.2327ZM71.2907 87.4795C68.8641 86.3751 65.3052 87.6175 62.7099 86.9987C62.2201 86.8817 61.787 86.5456 61.3469 86.5186C60.9092 86.4919 60.3996 86.7225 59.9837 86.759C57.7612 86.9563 55.7323 86.7372 53.6491 86.4382C52.1875 86.2286 50.6307 86.1466 49.318 85.7982C48.0607 85.4652 46.7603 84.697 45.4687 84.1976C44.1581 83.6916 42.7938 83.1874 41.5394 82.6773C39.0646 81.6711 36.4345 79.9299 33.8408 79.2364C35.5905 81.0913 38.6028 81.6873 40.6576 83.2377C37.7539 82.4273 35.5629 80.9062 32.959 79.7967C34.9877 81.6094 37.8186 82.7073 40.6576 83.8775C43.4848 85.0438 46.557 86.0304 49.8791 86.5184C56.4781 87.4884 64.2179 88.9291 71.2907 87.4795ZM73.3756 87.2391C72.9639 87.2555 72.451 87.1699 72.4138 87.5591C72.7627 87.8579 73.3496 87.8269 73.3756 87.2391ZM77.706 77.7956C77.8198 78.3869 78.6801 78.2106 78.5889 77.5554C78.1517 77.4935 77.9623 77.6788 77.706 77.7956ZM84.3619 81.957C82.2061 81.9051 79.5468 81.162 77.3046 81.2374C76.4443 81.2659 75.3987 81.4713 75.1398 82.3564C75.8015 82.6243 76.5103 82.4636 77.3046 82.4376C79.9056 82.35 83.0836 83.5162 84.3619 81.957ZM86.5274 81.7969C86.1523 81.7961 86.0417 82.0601 85.966 82.3564C86.0691 82.4667 86.3141 82.4369 86.5274 82.4376C86.4893 82.0836 86.6374 82.039 86.5274 81.7969ZM91.2589 81.4772C90.8675 81.4178 90.7218 81.9035 90.8578 82.1178C91.11 82.1558 91.1711 82.0033 91.3394 81.957C91.3973 81.7125 91.201 81.7215 91.2589 81.4772ZM97.9143 81.957C96.2726 81.7824 94.3554 81.8904 92.8628 82.1178C93.7417 82.9436 96.8984 82.4165 97.9143 81.957ZM20.7698 33.3001C21.5608 33.7387 22.2907 34.6628 23.3361 34.5808C23.0537 34.1959 22.6533 33.9284 22.3733 33.5409C22.6711 33.5175 22.9242 33.4505 23.015 33.2206C22.0396 32.5396 20.7888 31.7079 20.2886 30.8191C20.6187 31.4575 21.124 32.4746 20.7698 33.3001ZM31.0345 33.941C30.8629 33.7657 30.9402 33.3409 30.7134 33.2208C30.6623 33.569 30.8881 34.0559 31.0345 33.941ZM23.6567 40.9038C23.7796 42.2214 24.6234 42.8188 24.6991 44.1846C23.7617 43.1195 23.2385 41.6406 22.6142 40.2626C22.5529 41.9294 23.0578 42.9621 23.4964 44.1048C23.834 44.9828 24.1504 46.0133 25.0199 46.2653C25.4259 46.1897 25.4032 45.686 25.8224 45.6245C26.2682 45.6886 26.5003 46.3869 26.7842 46.3455C26.5702 46.1053 26.5034 45.7186 26.4635 45.3052C26.541 45.0088 26.9656 45.0591 27.1048 44.8244C26.2983 43.1756 25.1424 41.8745 23.6567 40.9038Z" fill="#18E48C"/>
</svg>
