<svg width="101" height="100" viewBox="0 0 101 100" fill="none" xmlns="http://www.w3.org/2000/svg">
<g clip-path="url(#clip0_64_204)">
<path d="M46.8588 99.9319C44.0128 99.7463 40.6949 99.2971 39.5302 98.9395C37.9653 98.4592 37.2166 98.2599 36.9764 98.2599C36.8286 98.2599 36.5744 98.1916 36.4116 98.108C36.2487 98.0245 35.655 97.8244 35.0923 97.6634C34.5295 97.5023 33.6944 97.229 33.2364 97.056C32.7784 96.8829 32.2265 96.7414 32.0101 96.7414C31.7937 96.7414 31.5667 96.6615 31.5057 96.5639C31.378 96.3594 29.4144 95.3915 29.1272 95.3915C28.8879 95.3915 26.4204 94.1086 25.5257 93.519C25.1599 93.2779 24.3234 92.7943 23.6668 92.4443C23.0103 92.0943 22.1172 91.5133 21.6821 91.1532C21.247 90.7931 20.8209 90.4984 20.7352 90.4984C20.6495 90.4984 19.9276 89.9479 19.131 89.2751C18.3344 88.6023 17.3468 87.7861 16.9364 87.4613C16.5259 87.1365 15.924 86.5877 15.5989 86.2419C15.2737 85.896 14.8765 85.5719 14.7162 85.5216C14.5559 85.4712 14.3464 85.2607 14.2506 85.0536C14.1548 84.8466 13.4717 84.0236 12.7326 83.2247C10.9298 81.2762 9.92406 80.0967 9.51291 79.4488C9.32533 79.1532 8.94164 78.583 8.66026 78.1817C6.60625 75.2522 5.02891 72.3446 3.71721 69.0698C3.4756 68.4666 3.17747 67.7832 3.05469 67.5512C2.93192 67.3192 2.69424 66.6738 2.52652 66.117C2.3588 65.5602 2.1547 65.0325 2.07297 64.9443C1.99123 64.8562 1.92436 64.538 1.92436 64.2372C1.92436 63.9364 1.8561 63.6486 1.77267 63.5976C1.68925 63.5466 1.57839 63.2574 1.52634 62.9549C1.47429 62.6524 1.35404 62.0633 1.25912 61.6457C1.1642 61.2281 1.01094 60.5068 0.918544 60.0428C0.826148 59.5788 0.663325 58.8195 0.55671 58.3555C0.450095 57.8915 0.277075 56.9044 0.172222 56.162C-0.0623018 54.5015 -0.0555123 45.3786 0.181638 43.5073C0.372236 42.0033 1.07977 38.6829 1.58383 36.9269C1.69038 36.5557 1.81637 36.0621 1.8638 35.8301C1.91124 35.5981 2.01413 35.2564 2.09246 35.0708C2.34641 34.4691 2.777 32.9898 2.777 32.7191C2.777 32.5741 2.84491 32.4555 2.9279 32.4555C3.0109 32.4555 3.20949 32.0602 3.36923 31.577C3.52896 31.0938 3.84475 30.337 4.07097 29.8953C4.2972 29.4536 4.4823 28.9835 4.4823 28.8507C4.4823 28.7179 4.7963 28.0979 5.18008 27.4728C6.18705 25.8328 6.52865 25.2122 6.52865 25.023C6.52865 24.9311 6.71976 24.5728 6.95335 24.2266C7.18694 23.8805 7.68538 23.1417 8.061 22.5849C8.43662 22.0281 8.87859 21.3956 9.04316 21.1795C9.20773 20.9633 9.45799 20.5813 9.5993 20.3307C9.7406 20.08 10.0368 19.6874 10.2575 19.4582C10.4782 19.2291 10.9494 18.6619 11.3046 18.1979C12.1876 17.0445 17.4036 11.8706 17.6834 11.8706C17.757 11.8706 18.0591 11.6398 18.3546 11.3578C19.1983 10.5529 19.5305 10.2774 20.171 9.85159C20.4993 9.63337 20.998 9.2459 21.2794 8.99056C21.7943 8.52327 22.6716 7.96208 23.3518 7.66485C23.5538 7.57662 23.7647 7.4312 23.8206 7.34169C23.8765 7.25218 24.4781 6.89956 25.1574 6.55808C25.8367 6.21661 26.4315 5.88258 26.4792 5.8158C26.5268 5.74902 26.8728 5.55685 27.2479 5.38877C27.6231 5.22068 28.3905 4.86806 28.9532 4.60515C31.1081 3.59844 34.1799 2.49031 37.8208 1.40625C38.1021 1.32247 38.6602 1.203 39.0609 1.14075C39.4616 1.07851 39.8306 0.961626 39.881 0.881014C39.9313 0.800403 40.2557 0.734026 40.6019 0.733508C40.9481 0.732991 41.5105 0.655861 41.8516 0.56211C43.3056 0.162497 45.6281 0.00911901 50.3547 0.00057552C54.3622 -0.00666894 55.7841 0.0524918 57.3464 0.291475C58.425 0.456471 59.6528 0.627603 60.0748 0.671768C60.4969 0.71593 60.9957 0.814731 61.1833 0.891319C61.3708 0.967907 61.9464 1.12427 62.4622 1.23879C62.9781 1.35331 64.0524 1.65464 64.8496 1.90843C65.6469 2.16221 66.6445 2.47066 67.0665 2.59387C67.4886 2.71707 67.9068 2.8806 67.9959 2.95727C68.085 3.03393 68.2894 3.09666 68.4502 3.09666C68.6109 3.09666 69.1903 3.32057 69.7377 3.59423C70.285 3.8679 71.2404 4.2782 71.8607 4.50602C72.481 4.73384 73.7856 5.38811 74.7597 5.95995C76.4532 6.95405 76.7829 7.1427 77.5541 7.55874C77.7417 7.65995 78.3832 8.10205 78.9797 8.54119C79.5762 8.98034 80.1291 9.33964 80.2083 9.33964C80.2875 9.33964 80.5441 9.52946 80.7786 9.76146C81.0131 9.99346 81.2433 10.1833 81.2902 10.1833C81.3371 10.1833 81.5568 10.3541 81.7785 10.5629C82.0002 10.7717 82.5185 11.2083 82.9304 11.5331C84.2458 12.5705 85.203 13.4148 86.1658 14.387C87.0555 15.2854 89.6882 18.162 89.9587 18.5314C90.0282 18.6264 90.5654 19.3443 91.1524 20.1268C92.6806 22.1642 93.1575 22.836 93.1575 22.9515C93.1575 23.0073 93.4896 23.5551 93.8954 24.1688C94.3013 24.7824 94.7476 25.5123 94.8872 25.7907C95.0269 26.0691 95.2265 26.4488 95.3309 26.6344C95.8767 27.6046 97.2513 30.5458 97.2508 30.7422C97.2505 30.8671 97.3559 31.1708 97.4852 31.4171C97.8333 32.0805 98.0198 32.572 98.4552 33.9741C98.6714 34.6701 98.9804 35.5433 99.1419 35.9145C99.487 36.7076 99.6384 37.32 99.7469 38.3611C99.7904 38.7787 99.8939 39.2722 99.977 39.4578C100.134 39.8091 100.204 40.2301 100.484 42.5136C100.576 43.2662 100.73 44.0874 100.826 44.3384C101.057 44.9372 101.058 54.2779 100.828 55.3522C100.733 55.7976 100.585 56.7694 100.499 57.5118C100.413 58.2542 100.257 59.2033 100.152 59.6209C100.047 60.0385 99.9168 60.7802 99.863 61.2692C99.8092 61.7581 99.698 62.1991 99.616 62.2493C99.534 62.2995 99.4669 62.5676 99.4669 62.8451C99.4669 63.1227 99.3396 63.5927 99.184 63.8897C99.0284 64.1867 98.8447 64.6575 98.7757 64.9359C98.6215 65.5579 98.1105 67.025 97.9097 67.4224C97.8282 67.5835 97.7616 67.8241 97.7616 67.9571C97.7616 68.09 97.651 68.4137 97.5158 68.6765C97.3807 68.9392 97.1201 69.4958 96.9367 69.9134C96.1422 71.723 94.9855 73.9995 94.4759 74.7566C94.1727 75.2071 93.8101 75.8012 93.6702 76.0769C93.4164 76.5769 91.3022 79.7083 91.1103 79.8684C91.0547 79.9149 90.8271 80.2186 90.6044 80.5434C89.7756 81.7523 84.7329 86.9232 83.1609 88.1761C81.5117 89.4904 81.0312 89.8927 80.7396 90.2031C80.5871 90.3655 80.3897 90.4984 80.301 90.4984C80.2122 90.4984 79.6137 90.878 78.971 91.342C78.3283 91.806 77.7645 92.1857 77.7181 92.1857C77.6718 92.1857 77.2322 92.4398 76.7412 92.7503C75.2249 93.7095 72.8472 95.0541 72.6674 95.0541C72.5733 95.0541 71.7926 95.3668 70.9324 95.7491C68.2107 96.9586 68.0357 97.0272 66.4695 97.4984C65.6253 97.7524 64.8196 97.9992 64.6789 98.0468C64.5382 98.0945 64.1545 98.1957 63.8263 98.2718C63.498 98.3479 62.769 98.5344 62.2062 98.6863C60.3945 99.1751 58.8283 99.4693 57.4314 99.583C56.6811 99.6441 55.9904 99.7416 55.8966 99.7996C55.6095 99.9772 49.0312 100.073 46.8588 99.9319ZM55.8127 96.7321C56.1404 96.6341 56.9456 96.4868 57.6022 96.4047C59.4312 96.1758 60.6248 95.9273 60.8194 95.7347C60.9163 95.6388 61.301 95.5603 61.6742 95.5603C62.3314 95.5603 63.2583 95.3375 63.8668 95.0334C64.0296 94.952 64.2852 94.8854 64.4347 94.8854C64.801 94.8854 67.6217 93.8949 67.8254 93.6947C67.9145 93.6072 68.0931 93.5355 68.2224 93.5355C68.4218 93.5355 70.4656 92.6551 71.3475 92.1893C71.498 92.1098 72.3037 91.6898 73.1381 91.2558C73.9724 90.8219 74.7762 90.36 74.9243 90.2295C75.0724 90.099 75.2697 89.9922 75.3628 89.9922C75.456 89.9922 76.1385 89.5746 76.8796 89.0642C77.6208 88.5538 78.2917 88.1362 78.3706 88.1362C78.4495 88.1362 78.7077 87.9084 78.9445 87.63C79.1812 87.3516 79.453 87.1238 79.5484 87.1238C79.6438 87.1238 79.8685 86.9394 80.0476 86.714C80.2268 86.4887 80.6491 86.1357 80.9861 85.9296C81.323 85.7235 82.043 85.1297 82.5859 84.6099C83.1289 84.0901 83.7152 83.5404 83.8889 83.3882C84.3876 82.9513 85.1886 82.0627 86.073 80.9652C86.5217 80.4084 87.0906 79.7513 87.3373 79.5049C87.584 79.2586 87.9987 78.7651 88.2589 78.4082C88.519 78.0513 89.0223 77.3797 89.3773 76.9157C89.7323 76.4517 90.0754 75.9581 90.1396 75.8189C90.2039 75.6797 90.5639 75.0837 90.9396 74.4943C91.3153 73.905 91.6235 73.3735 91.6244 73.3132C91.625 73.253 91.8939 72.8703 92.2212 72.4628C92.5486 72.0553 92.8164 71.6106 92.8164 71.4745C92.8164 71.2497 93.0205 70.7816 94.2693 68.1418C94.8832 66.8441 95.5674 65.0344 95.8322 64.0079C95.9639 63.4975 96.1528 62.8141 96.252 62.4893C96.3513 62.1645 96.4716 61.5951 96.5194 61.2239C96.5672 60.8527 96.6777 60.4614 96.7649 60.3545C96.852 60.2475 97.0719 59.2605 97.2535 58.161C97.4351 57.0615 97.6677 55.6685 97.7703 55.0653C98.0056 53.6827 97.8997 45.5482 97.6221 43.676C97.5119 42.9336 97.2607 41.7188 97.0638 40.9764C96.8668 40.2339 96.6673 39.2849 96.6203 38.8672C96.5734 38.4496 96.4657 38.0358 96.381 37.9477C96.2963 37.8595 96.2259 37.6317 96.2245 37.4415C96.2213 37.0352 95.6674 35.2201 95.4938 35.0484C95.4281 34.9834 95.3744 34.777 95.3744 34.5898C95.3744 34.4026 95.2267 33.9407 95.0463 33.5634C94.8658 33.1861 94.5134 32.3838 94.2631 31.7806C92.9884 28.7084 90.29 23.9305 89.4033 23.1754C89.3488 23.129 89.1018 22.7442 88.8544 22.3203C87.8161 20.5409 82.6831 15.1373 80.6443 13.6773C80.0233 13.2326 79.5152 12.7979 79.5152 12.7114C79.5152 12.6249 79.273 12.4302 78.9769 12.2788C78.6809 12.1273 78.3548 11.9305 78.2522 11.8414C77.7124 11.3725 74.6997 9.45959 73.8877 9.07015C73.3718 8.82274 72.9099 8.55918 72.8611 8.48445C72.7282 8.28074 70.7052 7.31489 70.4115 7.31489C70.2711 7.31489 70.1149 7.24882 70.0645 7.16807C70.014 7.08732 69.4915 6.85102 68.9033 6.64295C68.3152 6.43489 67.4495 6.093 66.9797 5.88321C66.51 5.67341 65.6658 5.36605 65.1039 5.20019C64.542 5.03433 63.6283 4.75893 63.0736 4.58819C62.5188 4.41746 61.7322 4.27776 61.3256 4.27776C60.9191 4.27776 60.5864 4.20886 60.5864 4.12465C60.5864 4.04043 60.1835 3.93326 59.6911 3.88649C59.1987 3.83971 58.2971 3.69016 57.6874 3.55415C55.2305 3.00601 53.7026 2.89537 49.6726 2.97374C45.7468 3.05007 42.6649 3.38237 42.2714 3.77174C42.1777 3.86445 41.6605 3.9403 41.122 3.9403C40.5836 3.9403 40.0956 4.01623 40.0376 4.10903C39.9797 4.20183 39.6963 4.27776 39.4079 4.27776C38.888 4.27776 37.7949 4.52473 37.1386 4.79048C36.9511 4.86644 36.3755 5.05699 35.8597 5.21394C35.3438 5.37089 34.6532 5.61183 34.3249 5.74938C33.9966 5.88692 33.5362 6.0765 33.3017 6.17067C33.0673 6.26484 32.7422 6.40895 32.5793 6.49093C32.4164 6.5729 32.1862 6.63985 32.0677 6.6397C31.7277 6.63929 28.4831 8.21052 28.1474 8.53817C27.9809 8.70058 27.7267 8.83345 27.5823 8.83345C27.4379 8.83345 26.9209 9.0992 26.4335 9.424C25.946 9.74881 25.4503 10.0146 25.3318 10.0146C25.2133 10.0146 25.1158 10.0715 25.1153 10.1411C25.1147 10.2107 24.868 10.4195 24.567 10.6051C22.6331 11.7978 20.7916 13.1864 19.3644 14.5281C18.6487 15.2009 18.0217 15.7513 17.9709 15.7513C17.841 15.7513 15.9078 17.6584 15.9078 17.7866C15.9078 17.8446 15.4665 18.3405 14.9272 18.8886C14.3879 19.4367 13.5847 20.3408 13.1424 20.8976C12.2017 22.0817 10.1098 25.1195 10.1098 25.3015C10.1098 25.3703 10.0025 25.5466 9.87147 25.6931C9.5671 26.0333 8.78762 27.339 8.52882 27.942C8.41931 28.1972 8.26979 28.406 8.19656 28.406C8.12333 28.406 8.06341 28.5807 8.06341 28.7941C8.06341 29.0076 7.99392 29.2543 7.90898 29.3425C7.6324 29.6296 6.69918 31.4442 6.69918 31.6949C6.69918 31.8292 6.55703 32.1895 6.38329 32.4956C6.20955 32.8016 6.02578 33.2785 5.9749 33.5552C5.92402 33.832 5.63639 34.7039 5.33572 35.4927C5.03505 36.2815 4.67673 37.4204 4.53946 38.0236C4.4022 38.6268 4.21046 39.3743 4.11338 39.6848C3.8642 40.4817 3.62708 41.9573 3.52626 43.3386C3.47884 43.9882 3.36509 44.6715 3.27348 44.8571C3.06424 45.281 3.18888 54.2461 3.43182 56.2463C3.70175 58.4687 3.95169 60.0024 4.11927 60.4646C4.20339 60.6966 4.35251 61.1901 4.45064 61.5613C4.90302 63.2724 5.22041 64.2741 5.35687 64.4213C5.4386 64.5094 5.50547 64.6878 5.50547 64.8176C5.50547 64.9474 5.60814 65.2929 5.73362 65.5853C5.85909 65.8778 6.09733 66.4966 6.26303 66.9607C7.04624 69.1539 7.25848 69.635 8.23931 71.4405C10.1362 74.9322 11.7709 77.4315 12.8139 78.4342C13.1034 78.7126 13.3425 79.0243 13.3451 79.1267C13.3477 79.2292 13.5302 79.5056 13.7507 79.741C13.9712 79.9763 14.3146 80.43 14.5139 80.749C14.7132 81.068 15.0698 81.4163 15.3064 81.523C15.543 81.6297 16.0041 82.1308 16.3311 82.6365C16.6581 83.1423 17.0634 83.5993 17.2318 83.6522C17.4001 83.7051 18.0028 84.1851 18.5711 84.719C19.1394 85.2528 19.7974 85.8415 20.0334 86.0271C20.2694 86.2127 20.723 86.5715 21.0415 86.8244C22.4517 87.9445 23.9576 88.9798 24.1766 88.9798C24.3076 88.9798 24.5152 89.1156 24.6377 89.2815C24.8852 89.6166 26.051 90.3297 26.3514 90.3297C26.4573 90.3297 26.7035 90.4781 26.8986 90.6594C27.3207 91.0517 31.6273 93.1981 31.9925 93.1981C32.1321 93.1981 32.5414 93.343 32.9019 93.5201C33.963 94.0413 35.0388 94.4718 35.8597 94.7037C36.2817 94.8229 36.8033 94.9885 37.0188 95.0716C37.2342 95.1548 37.5834 95.2228 37.7947 95.2228C38.006 95.2228 38.2518 95.291 38.3409 95.3743C38.43 95.4575 38.8098 95.5654 39.185 95.6139C39.5602 95.6623 40.5194 95.8559 41.3166 96.044C43.9757 96.6715 46.1618 96.8666 50.7821 96.8888C53.4687 96.9017 55.4518 96.8399 55.8127 96.7321ZM46.7119 92.4053C46.6371 92.3309 45.8721 92.22 45.012 92.1589C44.1519 92.0978 43.1029 91.9734 42.6808 91.8824C41.3242 91.5898 39.536 91.1444 39.185 91.0116C38.3767 90.7058 37.6005 90.4984 37.2645 90.4984C37.0657 90.4984 36.8587 90.4274 36.8045 90.3407C36.7504 90.254 36.2662 90.0613 35.7286 89.9124C34.7386 89.6383 34.1075 89.4009 33.6428 89.1279C33.5021 89.0453 33.2719 88.9333 33.1312 88.8791C31.4601 88.235 30.2497 87.6094 28.6974 86.5876C28.1816 86.2481 27.5293 85.8714 27.2479 85.7506C26.9666 85.6297 26.354 85.2059 25.8866 84.8088C25.4193 84.4116 24.9553 84.0867 24.8554 84.0867C24.7556 84.0867 24.3742 83.783 24.0079 83.4118C23.6416 83.0406 23.2453 82.7368 23.1274 82.7368C23.0094 82.7368 22.4164 82.2623 21.8095 81.6823C21.2026 81.1023 20.2407 80.196 19.6719 79.6683C19.103 79.1406 18.4782 78.4417 18.2835 78.115C18.0887 77.7884 17.7866 77.4764 17.6121 77.4216C17.4376 77.3668 17.1293 76.9837 16.9271 76.5704C16.7249 76.157 16.4686 75.7619 16.3576 75.6923C16.119 75.5427 14.373 73.3423 14.373 73.1911C14.373 73.1339 14.2296 72.8855 14.0543 72.6391C13.879 72.3928 13.6762 72.0014 13.6036 71.7694C13.5309 71.5374 13.2301 71.0439 12.9351 70.6727C12.3595 69.9484 12.0845 69.4086 11.2159 67.2981C10.9104 66.5557 10.4696 65.5307 10.2364 65.0203C10.0031 64.5099 9.71687 63.7506 9.60021 63.333C9.48354 62.9154 9.32915 62.3839 9.25711 62.1519C7.74174 57.2714 7.09425 50.9504 7.62491 46.2176C7.95084 43.3107 8.14259 42.2251 8.78912 39.6265C9.06618 38.5129 9.33159 37.355 9.37892 37.0534C9.42624 36.7518 9.5333 36.505 9.61683 36.505C9.70036 36.505 9.77041 36.2962 9.7725 36.041C9.77456 35.7858 9.92635 35.3872 10.1098 35.1552C10.2932 34.9232 10.4449 34.6376 10.447 34.5206C10.4491 34.4036 10.6119 33.9481 10.8089 33.5083C11.0058 33.0685 11.2278 32.5568 11.3022 32.3712C11.6784 31.4328 12.436 29.9498 12.7776 29.4827C12.9893 29.1933 13.3671 28.5289 13.6172 28.0064C13.8673 27.4838 14.1396 27.0562 14.2224 27.0562C14.3052 27.0562 14.3739 26.9613 14.3749 26.8453C14.3777 26.5493 16.9597 23.1889 18.0394 22.0762C18.3207 21.7862 18.7428 21.2895 18.9773 20.9724C19.2118 20.6553 19.6677 20.1671 19.9905 19.8874C20.3133 19.6078 20.8888 19.0863 21.2695 18.7285C21.6501 18.3706 22.3706 17.7753 22.8705 17.4054C23.3705 17.0356 24.2799 16.2844 24.8915 15.736C25.503 15.1876 26.0718 14.739 26.1555 14.739C26.4438 14.739 28.733 13.2452 28.9805 12.8957C29.1168 12.7031 29.3622 12.5455 29.5258 12.5455C29.8992 12.5455 30.7407 12.1662 30.7425 11.9971C30.7431 11.9275 30.8819 11.8706 31.0508 11.8706C31.2196 11.8706 31.4306 11.8041 31.5197 11.723C31.6088 11.6418 32.2162 11.3671 32.8694 11.1125C33.5227 10.858 34.2133 10.5505 34.4042 10.4292C34.7944 10.1813 36.929 9.50969 39.4408 8.84461C39.8628 8.73285 40.5535 8.53509 40.9756 8.40513C41.3976 8.27518 42.165 8.11846 42.6808 8.05688C43.1967 7.99529 43.6956 7.88545 43.7895 7.81279C44.1978 7.49692 53.4392 7.18549 54.019 7.46807C54.2077 7.56005 54.976 7.66855 55.7263 7.7092C56.4767 7.74984 57.7812 7.94561 58.6253 8.14425C59.4694 8.34289 60.467 8.57349 60.8422 8.6567C61.7479 8.85759 62.4315 9.04994 64.1675 9.5924C64.9648 9.84151 65.7705 10.0879 65.9581 10.14C66.1457 10.192 66.5028 10.3749 66.7518 10.5464C67.0007 10.7179 67.2896 10.8582 67.3936 10.8582C67.4976 10.8582 67.716 10.9289 67.8789 11.0153C68.0417 11.1017 69.0191 11.5743 70.0508 12.0655C71.0825 12.5567 72.1787 13.1694 72.4868 13.427C72.7948 13.6846 73.1567 13.8953 73.2908 13.8953C73.425 13.8953 73.7868 14.1121 74.0949 14.377C74.403 14.6419 74.9237 14.9844 75.2519 15.138C75.8936 15.4384 78.8883 17.8843 80.2825 19.2469C81.3953 20.3344 83.3625 22.5049 84.1295 23.4915C84.4633 23.9209 85.0196 24.5623 85.3658 24.9169C85.712 25.2715 85.9953 25.6358 85.9953 25.7265C85.9953 25.8171 86.2801 26.3243 86.6281 26.8534C87.5241 28.2154 89.9189 32.7579 90.4711 34.1428C90.5637 34.3748 90.7071 34.6965 90.79 34.8576C90.8728 35.0188 90.9406 35.263 90.9406 35.4003C90.9406 35.5376 91.0494 35.8993 91.1823 36.204C91.3153 36.5088 91.556 37.2137 91.7174 37.7705C91.8787 38.3273 92.0682 38.8588 92.1386 38.9516C92.2089 39.0444 92.3109 39.4241 92.3652 39.7953C92.5422 41.0049 92.9233 42.9952 93.0277 43.2542C93.4105 44.2049 93.5248 52.3612 93.1943 55.1496C92.8672 57.9098 92.1926 60.9902 91.6054 62.405C91.5284 62.5906 91.3404 63.16 91.1877 63.6704C91.035 64.1808 90.848 64.7503 90.772 64.9359C90.6961 65.1215 90.5446 65.5391 90.4355 65.8639C90.3263 66.1887 89.8605 67.2138 89.4003 68.1418C88.9402 69.0698 88.52 69.9429 88.4665 70.0822C88.3227 70.4565 88.0139 70.9413 87.4874 71.6193C87.2295 71.9514 87.0184 72.2973 87.0184 72.388C87.0184 72.4788 86.7904 72.8512 86.5116 73.2158C86.2328 73.5803 86.0026 73.9735 86 74.0895C85.9974 74.2055 85.9185 74.3004 85.8247 74.3004C85.7309 74.3004 85.6542 74.3757 85.6542 74.4678C85.6542 74.6965 83.0784 77.711 81.9589 78.7924C81.459 79.2754 81.0464 79.772 81.042 79.896C81.0375 80.02 80.7263 80.3493 80.35 80.6277C79.9738 80.9061 79.4065 81.3617 79.0895 81.6401C76.4189 83.9851 75.0094 85.1085 74.6125 85.2081C74.4014 85.2611 74.2288 85.3721 74.2288 85.4548C74.2288 85.5375 74.1195 85.6052 73.986 85.6052C73.8526 85.6052 73.5264 85.7811 73.2613 85.9959C72.9962 86.2108 72.4339 86.5604 72.0119 86.7728C71.5898 86.9852 71.1831 87.2649 71.1081 87.3945C71.0331 87.524 70.8522 87.63 70.7061 87.63C70.5601 87.63 69.9308 87.8892 69.3078 88.206C68.6847 88.5228 67.9831 88.8548 67.7486 88.9438C67.5142 89.0327 66.8619 89.317 66.2991 89.5755C65.7364 89.834 65.0266 90.1094 64.7218 90.1876C64.4169 90.2657 63.9181 90.3989 63.6133 90.4836C63.3085 90.5683 62.2948 90.8399 61.3608 91.0871C60.4267 91.3344 59.5301 91.6067 59.3683 91.6924C59.2065 91.7781 58.7774 91.8482 58.4149 91.8482C58.0523 91.8482 57.6827 91.9188 57.5936 92.0051C57.5045 92.0913 56.741 92.2076 55.8969 92.2635C53.1295 92.4466 46.851 92.5435 46.7119 92.4053ZM38.1974 74.3951C41.3299 73.7431 43.8342 71.9084 45.0056 69.4072C45.9206 67.4536 45.9831 67.3468 46.2592 67.2654C46.4014 67.2234 46.651 67.1187 46.8139 67.0327C46.9767 66.9467 47.3933 66.8763 47.7397 66.8763C48.086 66.8763 48.605 66.8044 48.8931 66.7166C49.1811 66.6288 49.8388 66.4449 50.3547 66.308C50.8705 66.1712 51.5612 65.9658 51.8894 65.8516C52.2177 65.7374 52.563 65.6181 52.6568 65.5863C52.7506 65.5546 52.9424 65.4614 53.0831 65.3792C53.2238 65.297 53.8377 65.0216 54.4474 64.7672C55.7678 64.2162 55.679 64.2641 56.9397 63.4215C57.4916 63.0527 58.1436 62.6497 58.3884 62.526C59.4211 62.0046 63.8089 57.4056 64.3933 56.2322C64.5974 55.8224 64.807 55.4491 64.8592 55.4027C65.1235 55.1674 66.3398 52.8586 66.548 52.1968C66.6794 51.7792 66.8358 51.3616 66.8955 51.2688C66.9927 51.1179 67.3528 49.9837 67.7526 48.5692C68.0345 47.572 68.4193 45.8609 68.4672 45.3914C68.5093 44.9788 68.6422 44.8694 69.4361 44.5938C69.9422 44.4182 70.4854 44.1588 70.6433 44.0174C70.8011 43.8761 71.0108 43.7604 71.1091 43.7604C71.2075 43.7604 71.3847 43.6451 71.5029 43.5042C71.6211 43.3633 71.9566 43.1351 72.2485 42.9972C72.5404 42.8593 72.9649 42.4766 73.1918 42.1468C73.4186 41.817 73.8982 41.229 74.2576 40.84C74.6169 40.4511 74.9109 40.0142 74.9109 39.8692C74.9109 39.7242 75.0643 39.2912 75.2519 38.9071C75.4395 38.5229 75.593 38.0576 75.593 37.873C75.593 37.6884 75.6697 37.4904 75.7635 37.433C76.0202 37.2761 75.9694 33.9563 75.6944 32.9115C75.4387 31.9401 74.6244 30.2147 74.3775 30.1214C74.2957 30.0905 74.2275 29.9387 74.226 29.784C74.2247 29.6293 74.0135 29.268 73.7571 28.981C73.1267 28.2755 71.1142 26.55 70.9217 26.55C70.8366 26.55 70.3756 26.3694 69.8973 26.1487C68.3558 25.4374 65.7229 25.1703 64.0421 25.5547C62.718 25.8576 61.8765 26.0969 61.6949 26.2223C61.6011 26.287 61.3325 26.3967 61.098 26.466C60.8635 26.5353 60.2435 26.9812 59.7203 27.4569C59.197 27.9325 58.5364 28.5268 58.2523 28.7774C57.9682 29.0281 57.6347 29.4837 57.5113 29.7898C57.3878 30.0959 57.163 30.5362 57.0116 30.7682C56.5555 31.4673 56.1716 32.7951 55.987 34.3122C55.7447 36.3038 56.2181 38.6335 57.1697 40.1327C57.4054 40.5039 57.6913 41.0164 57.8051 41.2716C57.9189 41.5268 58.112 41.7356 58.2342 41.7356C58.3564 41.7356 58.7246 42.0767 59.0524 42.4935C59.3803 42.9103 59.8404 43.3024 60.0748 43.3648C60.3093 43.4273 60.7697 43.6827 61.098 43.9323C61.4263 44.182 61.9634 44.4879 62.2917 44.6121C62.62 44.7363 62.9339 44.9031 62.9893 44.9827C63.1241 45.1764 62.8572 46.8087 62.5463 47.6914C62.409 48.0814 62.2956 48.4962 62.2942 48.6132C62.2929 48.7302 62.1293 49.1858 61.9308 49.6256C61.7323 50.0654 61.4525 50.6878 61.309 51.0088C61.1656 51.3298 60.7908 51.9905 60.4762 52.4771C60.1617 52.9636 59.9043 53.4096 59.9043 53.468C59.9043 53.5264 59.6357 53.8986 59.3074 54.295C58.9792 54.6913 58.7106 55.1027 58.7106 55.2092C58.7106 55.3156 58.6046 55.4027 58.475 55.4027C58.3455 55.4027 58.0233 55.6874 57.7591 56.0354C57.1736 56.8066 56.6775 57.2587 56.417 57.2587C56.3097 57.2587 55.9221 57.5624 55.5558 57.9336C55.1895 58.3048 54.8232 58.6086 54.7419 58.6086C54.6606 58.6086 54.2733 58.8242 53.8812 59.0877C53.1378 59.5873 51.3456 60.4646 51.0682 60.4646C50.9801 60.4646 50.8194 60.5702 50.7111 60.6993C50.6028 60.8284 50.3057 60.9718 50.0507 61.0178C49.7958 61.0639 49.1269 61.2338 48.5641 61.3954C46.6359 61.9492 45.5798 61.8578 45.5798 61.1371C45.5798 60.1892 42.6388 56.4151 41.9001 56.4151C41.747 56.4151 41.3958 56.2271 41.1199 55.9973C40.8439 55.7675 40.2402 55.4467 39.7783 55.2844L38.9386 54.9893L38.8913 41.0517L38.844 27.1141L38.3764 26.5076C37.1923 24.9718 35.1285 24.9713 34.074 26.5066L33.6428 27.1345V40.9105C33.6428 51.7261 33.597 54.7238 33.4297 54.8602C33.3124 54.9557 32.7944 55.253 32.2786 55.5209C31.16 56.1017 30.5753 56.4395 30.2928 56.6681C30.1781 56.7609 29.7677 57.0637 29.3807 57.3409C28.6984 57.8295 27.5038 59.3898 27.5038 59.7922C27.5038 59.9013 27.3575 60.1939 27.1788 60.4422C26.6147 61.226 26.2412 62.8004 26.2327 64.4297C26.2244 66.0239 26.5497 67.7885 26.9351 68.2394C27.0603 68.3859 27.1627 68.5939 27.1627 68.7017C27.1627 69.0297 28.6919 71.2807 29.3008 71.8488C30.4636 72.934 32.6801 74.0814 34.0175 74.2906C34.4718 74.3616 34.8931 74.4688 34.9537 74.5288C35.1484 74.7214 36.9954 74.6453 38.1974 74.3951ZM35.3481 69.2102C34.1343 68.9557 33.5663 68.6275 32.8568 67.7707C31.7716 66.4604 31.4259 65.6755 31.4259 64.5218C31.4259 63.9608 31.4931 63.5017 31.5751 63.5017C31.6572 63.5017 31.7666 63.2929 31.8183 63.0377C31.9348 62.4626 33.631 60.582 34.373 60.2053C35.2102 59.7804 37.1724 59.8655 38.3426 60.3776C38.8528 60.6008 39.2703 60.8492 39.2703 60.9295C39.2703 61.0097 39.4895 61.2987 39.7574 61.5715C40.6557 62.4863 40.8893 63.1201 40.8727 64.5984C40.8613 65.6107 40.7637 66.1487 40.4822 66.7497C40.2758 67.1905 40.039 67.5512 39.9559 67.5512C39.8728 67.5512 39.7557 67.7043 39.6957 67.8915C39.5675 68.2911 38.5122 68.8599 37.3092 69.1779C36.3514 69.431 36.3976 69.4302 35.3481 69.2102ZM64.602 39.8926C64.5485 39.8069 64.2639 39.6845 63.9695 39.6206C63.465 39.5109 62.6606 38.7957 61.8472 37.7335C61.3442 37.0766 61.0555 35.3211 61.2871 34.3284C61.6095 32.9473 62.0873 32.2081 63.1268 31.4828C63.9378 30.9169 64.2935 30.7818 65.234 30.6821C66.886 30.5071 68.0833 30.913 69.1981 32.0261C70.4056 33.2316 70.8117 34.1306 70.7447 35.4495C70.7152 36.0289 70.614 36.5984 70.5197 36.7149C70.4254 36.8315 70.2912 37.1106 70.2215 37.3353C70.1014 37.7219 68.7609 39.2047 68.5314 39.2047C68.4723 39.2047 68.1201 39.3945 67.7486 39.6265C67.1954 39.9721 66.8587 40.0484 65.8863 40.0484C65.2334 40.0484 64.6555 39.9783 64.602 39.8926Z" fill="#18E48C"/>
</g>
<defs>
<clipPath id="clip0_64_204">
<rect width="101" height="100" fill="white"/>
</clipPath>
</defs>
</svg>
