<svg width="88" height="100" viewBox="0 0 88 100" fill="none" xmlns="http://www.w3.org/2000/svg">
<g clip-path="url(#clip0_64_207)">
<path d="M42.8446 99.8397C42.5377 99.7545 42.0355 99.6463 41.7286 99.5993C41.4217 99.5523 41.0771 99.4391 40.9628 99.3477C40.8485 99.2563 40.4539 99.1262 40.0859 99.0585C39.7179 98.9907 38.7711 98.7467 37.982 98.5161C37.1928 98.2855 36.296 98.0442 35.9891 97.98C35.6822 97.9158 35.2744 97.7794 35.0829 97.677C34.8913 97.5745 34.5548 97.4907 34.335 97.4907C34.1152 97.4907 33.891 97.4193 33.8368 97.3322C33.7826 97.245 33.5033 97.1736 33.2162 97.1736C32.9291 97.1736 32.6405 97.1202 32.5747 97.0549C32.509 96.9895 32.1204 96.8512 31.7112 96.7475C29.0047 96.0617 28.5045 95.9212 28.2092 95.7641C28.0277 95.6675 27.6735 95.5884 27.4222 95.5884C27.171 95.5884 26.8972 95.5226 26.8139 95.4421C26.6708 95.3037 24.5111 94.7085 23.4738 94.5215C23.2108 94.474 22.854 94.3381 22.6811 94.2193C22.5081 94.1004 22.1357 94.0032 21.8535 94.0032C21.5713 94.0032 21.296 93.9319 21.2418 93.8447C21.1876 93.7575 20.9144 93.6839 20.6346 93.6811C20.3548 93.6781 19.9866 93.5714 19.8163 93.4434C19.6461 93.3153 19.2838 93.2106 19.0112 93.2106C18.7386 93.2106 18.4474 93.1449 18.3641 93.0645C18.2808 92.9842 17.7051 92.815 17.0847 92.6887C16.4643 92.5623 15.8054 92.3784 15.6205 92.2799C15.4355 92.1815 15.1138 92.101 14.9056 92.101C14.6974 92.101 14.3877 91.9962 14.2175 91.8682C14.0473 91.7402 13.6791 91.6332 13.3993 91.6304C13.1195 91.6275 12.8509 91.5616 12.8025 91.4836C12.754 91.4057 12.4448 91.308 12.1155 91.2667C11.7861 91.2253 11.122 91.0714 10.6397 90.9247C10.1575 90.778 9.49515 90.6002 9.16793 90.5295C8.37458 90.358 8.12421 90.1254 7.91947 89.3693C7.726 88.655 7.45092 85.3266 7.35957 82.595C7.32614 81.5952 7.22545 80.5681 7.13582 80.3124C7.04619 80.0568 6.96761 79.3054 6.96121 78.6427C6.95481 77.98 6.87787 77.0455 6.79024 76.566C6.7026 76.0864 6.56734 74.7668 6.48965 73.6333C6.41197 72.4999 6.28036 70.8236 6.19719 69.9081C6.11402 68.9926 5.96344 67.1023 5.86256 65.7073C5.76168 64.3123 5.61151 62.9519 5.52885 62.6842C5.44619 62.4164 5.37634 61.7387 5.37363 61.1782C5.37092 60.6177 5.29671 59.6241 5.20872 58.9702C5.12073 58.3163 5.01596 57.0513 4.97589 56.1591C4.93583 55.2668 4.83243 54.2325 4.74612 53.8605C4.65982 53.4885 4.58574 52.5778 4.5815 51.8368C4.57728 51.0957 4.49833 50.204 4.40609 49.8553C4.25074 49.2679 4.13931 48.0228 3.79607 43.0389C3.52122 39.0479 3.29411 36.6815 3.14342 36.2385C3.05745 35.9857 2.98539 35.1297 2.9833 34.3362C2.98119 33.5428 2.90306 32.6082 2.80964 32.2595C2.63148 31.5944 2.40129 28.6094 2.25955 25.1261C2.21343 23.9926 2.11095 22.9226 2.0318 22.7482C1.95265 22.5739 1.80626 21.4682 1.70648 20.2912C1.60671 19.1142 1.46113 17.4021 1.38297 16.4867C1.3048 15.5712 1.17727 13.6809 1.09956 12.2859C1.02185 10.8909 0.876685 9.54875 0.776966 9.30331C0.677248 9.05787 0.595598 8.20186 0.595527 7.40106C0.595455 6.60027 0.494714 5.44573 0.371655 4.83542C0.248596 4.22512 0.114631 2.88748 0.0739558 1.86288L0 -1.52588e-05L44.0215 0.0398989C87.9404 0.0797172 88.0428 0.0805496 87.9975 0.396852C87.9725 0.571225 87.8834 1.64124 87.7995 2.77466C87.4266 7.81274 87.302 9.14583 87.1619 9.59444C87.0797 9.85787 86.9757 10.8209 86.9309 11.7345C86.7785 14.8451 86.5369 17.8325 86.38 18.5475C86.2939 18.9398 86.2203 19.9967 86.2165 20.8961C86.2122 21.8675 86.1311 22.6719 86.0163 22.8776C85.9101 23.068 85.7693 24.2225 85.7035 25.4431C85.6376 26.6637 85.5128 28.5184 85.4261 29.5646C85.3394 30.6109 85.1937 32.4299 85.1025 33.6069C85.0112 34.7839 84.8908 35.8539 84.8349 35.9847C84.7272 36.2367 84.5172 38.9396 84.3298 42.484C84.2676 43.6611 84.1534 44.7216 84.0762 44.8407C83.9989 44.9599 83.8752 45.9942 83.8013 47.1393C83.6313 49.7741 83.2475 54.4054 83.0114 56.6716C82.9114 57.6307 82.7775 59.3117 82.7138 60.4072C82.65 61.5027 82.5345 62.5009 82.4571 62.6254C82.3797 62.75 82.2614 63.851 82.1941 65.0722C82.0169 68.288 81.7933 71.0491 81.6805 71.414C81.6266 71.5884 81.5057 72.7298 81.4119 73.9504C81.3181 75.171 81.1808 76.9187 81.1068 77.8341C81.0329 78.7496 80.8987 80.4973 80.8086 81.7179C80.7186 82.9385 80.5697 84.3214 80.4778 84.791C80.3858 85.2607 80.3076 86.2594 80.3039 87.0103C80.292 89.4021 79.8562 90.4976 78.9113 90.5107C78.7117 90.5137 77.9584 90.7001 77.2373 90.9254C75.1693 91.5716 74.9674 91.6254 74.6126 91.6254C74.4286 91.6254 74.075 91.7256 73.8268 91.848C73.5785 91.9705 73.0526 92.1478 72.658 92.2421C70.7646 92.6945 69.8443 92.9432 69.5911 93.071C69.4388 93.1478 69.1519 93.2129 68.9534 93.2157C68.7549 93.2187 68.4532 93.3254 68.283 93.4534C68.1128 93.5814 67.7404 93.6862 67.4554 93.6862C67.1705 93.6862 66.893 93.7575 66.8388 93.8447C66.7846 93.9319 66.5071 94.0032 66.2221 94.0032C65.9371 94.0032 65.5647 94.108 65.3945 94.236C65.2243 94.364 64.8561 94.471 64.5763 94.4738C64.2965 94.4767 64.0281 94.5422 63.9799 94.6198C63.9317 94.6973 63.6584 94.799 63.3727 94.8456C62.3093 95.0192 61.2873 95.2746 61.1163 95.4095C61.0193 95.486 60.7246 95.5851 60.4616 95.6297C60.1985 95.6742 59.7681 95.7858 59.505 95.8776C59.2419 95.9694 58.7397 96.1152 58.389 96.2017C56.9347 96.5603 55.8214 96.8842 55.5613 97.0244C55.409 97.1065 55.0725 97.1736 54.8134 97.1736C54.5543 97.1736 54.298 97.245 54.2438 97.3322C54.1896 97.4193 53.9128 97.4907 53.6286 97.4907C53.3444 97.4907 53.0315 97.5705 52.9334 97.6681C52.8352 97.7658 52.4801 97.9038 52.1442 97.9748C51.8083 98.0459 50.8519 98.2918 50.0189 98.5213C49.1859 98.7508 48.2532 98.9779 47.9463 99.026C47.6394 99.0741 47.2973 99.1862 47.1861 99.275C47.0749 99.3639 46.7162 99.4933 46.389 99.5627C46.0618 99.6321 45.5071 99.7633 45.1563 99.8542C44.3877 100.053 43.5966 100.048 42.8446 99.8397ZM45.7143 80.6646C46.372 80.4818 47.3046 80.2421 47.7869 80.132C48.2692 80.0219 49.0942 79.7817 49.6203 79.5983C50.1465 79.4149 50.8998 79.1967 51.2944 79.1133C51.689 79.03 52.4423 78.8081 52.9684 78.6202C53.4945 78.4323 54.2478 78.2189 54.6424 78.1459C55.3845 78.0087 57.5098 77.4143 58.0701 77.1873C58.2455 77.1162 58.8195 76.9748 59.3456 76.8732C59.8717 76.7715 60.4815 76.6026 60.7007 76.4979C60.9199 76.3932 61.4939 76.2196 61.9762 76.1121C63.0816 75.8657 65.376 75.1787 66.1612 74.859L66.7591 74.6156V73.6186C66.7591 73.0703 66.82 72.5842 66.8944 72.5385C66.9688 72.4928 67.0792 71.523 67.1397 70.3833C67.2002 69.2437 67.3171 68.135 67.3995 67.9196C67.4818 67.7042 67.5553 66.7616 67.5628 65.825C67.5703 64.8884 67.7239 62.7311 67.9043 61.0309C68.0847 59.3308 68.288 57.1195 68.3563 56.1168C68.4245 55.1142 68.5547 53.6875 68.6456 52.9464C68.8841 51.0023 69.1522 47.6244 69.1513 46.5763C69.1509 46.0806 69.2145 45.5077 69.2928 45.3031C69.371 45.0984 69.4607 44.0059 69.4921 42.8753L69.5491 40.8196L49.5143 40.7793L29.4795 40.7391L29.3838 39.5111C29.3311 38.8358 29.2205 37.8195 29.1379 37.2528C29.0554 36.6861 28.9062 35.1881 28.8064 33.9239C28.7067 32.6597 28.5868 31.2072 28.54 30.6962C28.4769 30.007 28.5118 29.7309 28.6747 29.6273C28.7987 29.5484 37.9582 29.4891 49.6874 29.4911C61.1235 29.493 70.5325 29.439 70.5962 29.3711C70.7454 29.2121 70.8406 28.4443 71.1326 25.0468C71.609 19.5025 71.6713 18.6272 71.5978 18.5091C71.5025 18.3558 17.7918 18.3682 16.9372 18.5218C16.3462 18.628 16.3031 18.6708 16.3491 19.1071C16.3763 19.366 16.4198 20.0415 16.4457 20.6082C16.4715 21.1749 16.5711 22.2449 16.667 22.986C16.8849 24.6694 17.2036 28.4953 17.2744 30.2779C17.3039 31.019 17.4027 32.0177 17.4941 32.4972C17.6532 33.3324 17.8462 35.316 18.1339 39.0758C18.4944 43.7853 18.6056 45.0273 18.7582 46.0507C18.8493 46.661 18.9252 47.6342 18.9269 48.2134C18.9306 49.4376 19.3638 51.7044 19.6265 51.8739C19.7257 51.938 28.142 51.9915 38.3293 51.9928C54.5283 51.9952 56.8814 52.0249 57.0893 52.2316C57.403 52.5435 57.6022 54.385 57.3691 54.8181C57.2724 54.9978 57.1896 55.5597 57.1851 56.0667C57.1808 56.5738 57.1061 57.488 57.0196 58.0983C56.933 58.7086 56.8021 60.0283 56.7286 61.0309C56.655 62.0336 56.5012 63.6073 56.3868 64.5282L56.1788 66.2025L55.6099 66.4001C54.915 66.6413 53.9419 66.8901 53.2459 67.0044C52.9601 67.0513 52.6868 67.1532 52.6386 67.2307C52.5904 67.3083 52.2826 67.3717 51.9545 67.3717C51.6265 67.3717 51.2778 67.4516 51.1796 67.5492C51.0814 67.6468 50.6904 67.7927 50.3107 67.8735C48.7483 68.2058 48.4889 68.2756 48.1561 68.4536C47.9646 68.5561 47.5921 68.6399 47.3285 68.6399C47.0648 68.6399 46.8048 68.7112 46.7506 68.7984C46.6964 68.8856 46.5083 68.9569 46.3327 68.9569C46.1571 68.9569 45.6566 69.0729 45.2207 69.2147C44.7155 69.379 44.1843 69.4386 43.7559 69.3789C42.5606 69.2124 41.5064 68.958 41.3445 68.797C41.2576 68.7106 41.0457 68.6399 40.8737 68.6399C40.7016 68.6399 40.16 68.5263 39.67 68.3874C39.18 68.2486 38.4921 68.0626 38.1414 67.9741C37.7906 67.8856 37.2526 67.7207 36.9457 67.6077C36.6388 67.4946 35.5658 67.2088 34.5614 66.9724C33.0591 66.619 32.2278 66.3711 31.8792 66.1726C31.7542 66.1014 31.3641 62.8814 31.354 61.8373C31.3476 61.1758 31.2741 60.2423 31.1906 59.7627C31.1072 59.2832 31.0033 58.503 30.9598 58.0289C30.9163 57.5549 30.8602 57.1466 30.8352 57.1217C30.738 57.0251 21.357 56.9603 20.6059 57.051C19.6627 57.165 19.6094 57.2908 19.8617 58.8082C20.0576 59.9867 20.3404 62.9176 20.5275 65.7073C20.5976 66.7535 20.6987 68.2515 20.7522 69.0362C20.8056 69.8209 20.9675 71.4316 21.1119 72.6155L21.3744 74.7682L22.5038 75.1228C24.4186 75.724 24.6026 75.7733 24.9294 75.7733C25.1037 75.7733 25.3856 75.8781 25.5558 76.0061C25.726 76.1341 26.0805 76.2433 26.3436 76.2489C26.6066 76.2543 26.9611 76.3637 27.1313 76.4917C27.3015 76.6197 27.6413 76.7244 27.8863 76.7244C28.4056 76.7244 29.7267 77.0161 30.1292 77.2196C30.2822 77.2969 31.2149 77.5727 32.2018 77.8325C34.7724 78.509 35.5378 78.7287 35.9891 78.9196C36.2083 79.0124 36.7989 79.1675 37.3016 79.2644C37.8043 79.3613 38.2569 79.5072 38.3074 79.5885C38.358 79.6698 38.6283 79.7389 38.9081 79.742C39.1879 79.745 39.5962 79.8495 39.8154 79.9741C40.0346 80.0987 40.416 80.2032 40.6629 80.2063C40.9098 80.2093 41.2468 80.2837 41.4118 80.3715C41.8944 80.6284 43.3554 80.9831 43.9606 80.9903C44.2675 80.9939 45.0567 80.8475 45.7143 80.6646Z" fill="#18E48C"/>
</g>
<defs>
<clipPath id="clip0_64_207">
<rect width="88" height="100" fill="white"/>
</clipPath>
</defs>
</svg>
