<svg width="74" height="100" viewBox="0 0 74 100" fill="none" xmlns="http://www.w3.org/2000/svg">
<path d="M24.8287 40.6788C23.9016 38.6326 23.486 36.2459 24.1943 34.0778C24.9025 31.8612 26.4887 30.0831 28.075 28.4265C32.4911 24.0174 37.9336 20.7778 42.2528 16.2962C44.6441 13.8358 46.6205 10.8884 47.3036 7.50233C47.8651 5.01799 47.5969 2.46046 47.0846 0C49.3784 2.60645 50.135 6.33325 49.4758 9.69489C48.7685 13.4702 46.6691 16.8072 44.2047 19.6814C42.2283 21.9958 39.9584 24.0418 37.5916 25.9422C34.8341 28.1588 32.1257 30.5457 30.3933 33.6637C28.9284 36.1966 28.5867 39.3146 29.5875 42.0672C31.2228 46.7925 35.0292 50.3003 37.1039 54.7576C34.8094 52.7357 32.5648 50.641 30.4655 48.4247C28.2701 46.0862 26.1954 43.6021 24.8287 40.6788ZM37.2742 36.976C36.8596 40.8492 38.8844 44.5028 41.301 47.3774C42.4718 48.6682 43.4725 50.2515 43.5209 52.0543C43.5701 54.4648 42.2042 56.7067 40.446 58.2893C40.8614 58.2412 41.1541 57.8754 41.4959 57.6807C44.1314 55.9999 46.6687 53.8807 47.9621 50.9827C48.8163 49.0095 48.6212 46.6707 47.499 44.8435C46.1808 42.7001 44.4486 40.8001 43.4239 38.4619C42.8618 37.1467 42.6667 35.6122 43.1306 34.2238C43.7411 32.3485 45.0585 30.8136 46.4497 29.4739C50.2806 25.845 54.9171 23.262 59.3587 20.4369C53.7459 22.0444 48.2066 24.2612 43.4725 27.7448C40.4707 29.9856 37.6893 33.1033 37.2742 36.976ZM63.9471 55.2938C66.6072 55.4402 69.2175 57.3885 69.706 60.0682C70.1699 62.3822 69.0477 64.6717 67.6073 66.4253C65.2399 69.2507 62.0429 71.2728 58.8227 73.0024C58.5047 73.1963 58.2365 73.4401 57.9924 73.7084C62.2387 72.6364 66.4843 71.0296 69.9256 68.2767C71.8283 66.6934 73.5122 64.5979 73.8786 62.0891C74.2204 59.9216 73.3179 57.6805 71.707 56.2435C69.7543 54.4646 66.9975 53.8075 64.4102 54.1488C62.9216 54.3435 61.2869 54.6601 60.2621 55.9024C61.4828 55.6596 62.6775 55.1719 63.9471 55.2938ZM10.9681 62.2595C14.1644 63.1122 17.4591 63.356 20.7291 63.5754C23.6573 63.7701 26.5862 63.8192 29.5391 63.7946C37.1525 63.6734 44.8148 63.1613 52.2819 61.5051C52.9893 61.3349 53.7706 61.213 54.4058 60.7746C55.6502 59.9703 57.0159 59.3369 58.3586 58.7036C52.2819 59.6779 46.1811 60.5069 40.0319 60.8963C33.8092 61.286 27.5372 61.5296 21.2906 61.1157C19.5092 60.9455 17.6787 60.8474 16.0195 60.165C15.6285 59.9948 15.0915 59.6545 15.2866 59.1421C15.653 58.4844 16.3851 58.1682 17.0195 57.8271C19.7043 56.5603 22.6323 55.8543 25.4877 55.0261C20.5822 54.9525 15.7015 56.1946 11.2122 58.1192C10.2114 58.6067 9.08895 58.9961 8.28396 59.8245C7.96596 60.1648 7.96596 60.7505 8.33238 61.0421C9.06464 61.6999 10.0402 61.992 10.9681 62.2595ZM50.5012 68.9587C46.2304 69.7139 41.9348 70.421 37.6154 70.6396C32.8813 70.9562 28.1471 70.6879 23.462 70.201C22.5594 70.0791 21.6562 69.9333 20.8512 69.5194C20.4364 69.2756 20.0217 68.8861 20.0462 68.3738C20.0946 67.5703 20.7775 67.0104 21.2661 66.4255C19.7535 66.9615 18.2402 67.5212 16.9713 68.521C16.4337 68.9351 15.8973 69.5922 16.0434 70.3229C16.2639 71.1754 17.0934 71.6869 17.8255 72.0764C19.6308 73.0026 21.6564 73.4161 23.6336 73.7816C28.6351 74.5859 33.7357 74.6104 38.7625 74.2685C44.0836 73.8546 49.3784 72.9781 54.5274 71.4675C53.0632 70.8104 51.672 70.0544 50.5012 68.9587ZM23.6818 77.3875C22.3153 77.7769 20.9241 78.2401 19.8019 79.1403C19.2396 79.5789 18.8011 80.3348 19.0699 81.0411C19.4116 81.9421 20.2658 82.4789 21.0702 82.9403C23.1695 84.0859 25.5363 84.6211 27.8544 85.0358C33.1018 85.8634 38.4943 85.7419 43.7168 84.8166C46.8156 84.2317 49.915 83.4035 52.7942 82.1131C50.9153 81.3335 49.0855 80.4562 47.3287 79.4335C44.2783 79.9693 41.2028 80.53 38.0792 80.7247C33.9558 81.0413 29.7824 80.7002 25.6582 80.1889C24.6819 79.9695 23.462 79.8722 22.8031 79.0194C22.4622 78.3123 23.2427 77.8008 23.6818 77.3875ZM57.0653 93.0491C60.4813 92.3438 63.9226 91.5385 67.046 89.956C68.0215 89.3949 69.2175 88.7859 69.5355 87.6174C69.706 86.4971 68.5346 85.9121 67.7049 85.4491C68.2172 86.0348 68.5589 86.8869 68.046 87.5685C67.1918 88.7139 65.7285 89.1519 64.4347 89.5904C60.3843 90.7352 56.1864 91.1982 52.0138 91.6612C40.9593 92.6597 29.831 92.9035 18.7771 91.9779C15.0678 91.5877 11.2846 91.1738 7.74638 89.8587C7.18566 89.6149 6.33146 89.371 6.33146 88.6156C6.55045 87.9593 7.18566 87.5928 7.74638 87.2761C10.2843 85.9855 13.1151 85.2787 15.9457 85.1084C15.1168 84.6209 14.1405 84.5726 13.1888 84.5971C10.8213 84.6701 8.50314 85.2787 6.25852 86.0348C4.33053 86.7401 2.35392 87.5202 0.816073 88.9333C0.20615 89.4685 -0.354565 90.4914 0.279081 91.2227C1.25543 92.2702 2.76877 92.5378 4.10997 92.8544C11.6263 94.1458 19.2396 94.8755 26.8544 95.1438C36.9572 95.437 47.133 94.9982 57.0653 93.0491ZM67.0705 94.3649C62.4824 95.8264 57.7242 96.6299 52.9895 97.2878C44.8149 98.3107 36.5663 98.6274 28.3424 98.3843C23.3401 98.1896 18.3378 97.8485 13.4078 97.0195C14.5547 97.7992 15.9704 98.0424 17.2885 98.4082C22.8284 99.5777 28.5136 99.7968 34.1511 99.9671C42.4226 100.113 50.6955 99.7968 58.8464 98.5056C62.7026 97.8246 66.5825 96.9959 70.047 95.1931C71.8536 94.2432 73.6842 92.781 74 90.6624C72.1704 92.6106 69.5355 93.5123 67.0705 94.3649Z" fill="#18E48C"/>
</svg>
