<svg width="100" height="87" viewBox="0 0 100 87" fill="none" xmlns="http://www.w3.org/2000/svg">
<path d="M92.1019 67.2772C91.4343 67.2339 90.6608 67.2051 89.8791 67.2051C85.9382 67.2051 82.1683 67.8546 78.6997 69.0381L78.9114 68.9731C77.8936 69.3339 76.2651 69.3339 76.1267 70.4814C76.6885 70.9577 76.77 71.7443 77.2422 72.4082C78.1949 73.8371 79.3674 75.0494 80.7353 76.0598L80.7597 76.0814C82.1846 77.0701 83.6095 78.0299 85.1077 78.8742C87.7539 80.3175 90.7585 81.1763 93.3477 82.6268C94.8215 83.4711 96.3278 84.5464 97.826 85.4484C98.5669 85.8959 99.0473 86.7113 100 87V86.8196C99.5359 86.2784 99.3893 85.4917 98.9333 84.8928C98.2494 84.2866 97.5736 83.7454 96.8978 83.1536C94.8785 80.8082 92.5416 78.802 89.9198 77.1278L89.8221 77.0701C87.6481 75.7567 82.8848 73.9164 81.9892 71.701L81.8589 71.5711C83.6339 71.3474 85.2135 71.0154 86.7362 70.568L86.5407 70.6185C88.8532 70.0773 90.9702 70.1927 93.3559 69.6659C94.4306 69.4205 95.5217 69.1247 96.6128 68.8216V68.2803C95.3914 67.1979 94.4795 65.7257 93.2174 64.7154C89.8872 62.1174 86.215 59.6782 82.3474 57.4844L81.981 57.2896C79.8478 56.0844 77.1364 55.305 74.8891 54.2803C74.0748 53.9195 72.7151 53.739 72.2428 53.1329C71.1843 51.7978 70.248 50.2679 69.507 48.6514L69.4419 48.4926C67.4443 45.0576 65.5878 41.5624 63.8725 38.007C62.7 35.2431 61.5357 32.9771 60.2248 30.7833L60.412 31.1225C54.0122 21.6039 45.0963 13.9543 34.4543 8.73679L34.1042 8.57803C31.5882 7.4739 28.6651 6.61513 25.5955 6.13162L25.3919 6.10276C23.6902 6.0306 21.9966 5.92235 20.303 5.8574C19.1142 5.17904 18.0883 4.48626 17.1275 3.72131L17.1519 3.74296C13.2843 1.578 3.27741 -3.11274 0.427594 3.09347C-1.40443 7.00482 3.14713 10.8657 4.7186 12.8502C5.97251 14.1708 7.11244 15.6502 8.09766 17.2162L8.17908 17.3605C8.65948 18.4069 8.78975 19.4822 9.27015 20.5719C10.4508 23.8338 11.6477 26.5111 13.0075 29.1018L12.7958 28.6544C13.6019 30.0905 14.4405 31.3101 15.3769 32.4647L15.3117 32.3781C15.8573 33.0348 16.7937 33.3451 17.0135 34.4276C16.3133 35.7338 15.7677 37.2493 15.4665 38.8297L15.4502 38.9307C14.5708 41.3266 14.0578 44.0905 14.0578 46.9555C14.0578 51.437 15.3036 55.6586 17.502 59.3679L17.4206 59.2236C18.5117 60.7174 21.1009 64.037 24.5696 62.7669C27.6229 61.6844 26.9471 58.2566 27.8265 55.2401C28.03 54.5184 27.8998 54.0421 28.315 53.5514V53.6885C29.2677 55.3844 30.2285 57.0009 31.0997 58.6968C33.5587 61.836 36.4818 64.5061 39.8201 66.7071L39.926 66.7721C41.5544 67.8546 42.8491 69.7309 44.8846 70.3948V70.2144H44.7299C44.2658 69.7669 43.7529 69.37 43.191 69.0309L43.1585 69.0164C41.8964 67.9195 40.7239 66.736 39.6654 65.4875L39.6003 65.4082C36.9459 62.2329 34.4218 58.6391 32.2315 54.8648L31.9953 54.4246C30.8799 52.5339 29.9435 50.4916 29.0478 48.6225C28.6407 47.9009 28.6407 46.8184 27.9568 46.4576C26.7517 47.6555 25.6688 48.9906 24.765 50.4267L24.6998 50.5421C23.6576 53.2339 22.9737 56.3442 22.7945 59.57V59.6494C22.5177 59.7143 22.6561 59.6494 22.5177 59.7793C20.3437 59.3102 19.5946 57.3112 18.7804 55.6298C17.673 52.9885 17.0298 49.9287 17.0298 46.7462C17.0298 44.1771 17.445 41.6947 18.2267 39.3493L18.1778 39.5369C18.6582 38.274 20.6938 34.2905 19.8796 33.0781C19.4562 31.9307 18.1127 31.274 17.3636 30.3431C16.4761 29.2317 15.6619 27.9688 14.9861 26.6338L14.9209 26.4894C13.2925 23.1193 12.4782 19.3812 10.7113 16.011C9.6447 14.2502 8.52106 12.7347 7.259 11.3203L7.316 11.3853C5.97251 10.0069 4.73487 8.46978 3.66009 6.83885L3.57053 6.69451C3.23669 6.03781 2.75629 4.94812 3.29368 4.22646C3.39139 3.8079 3.76594 3.48316 4.24634 3.41821C5.14199 2.76872 7.66611 3.61306 8.54548 3.97389C11.1266 4.83987 13.3494 5.8574 15.4094 7.05534L15.2792 6.98318C16.2318 7.57493 17.2659 8.72236 18.4873 9.01824H19.9122C22.0862 9.44401 24.5451 9.14813 26.5807 9.67494C30.318 10.7935 33.5505 12.1935 36.5388 13.911L36.3678 13.8172C45.3569 18.9626 52.5547 25.9193 57.4238 34.139L57.5867 34.4348C58.4009 35.8204 58.7591 37.0977 59.5001 38.541C60.925 41.5142 62.6837 44.5235 64.1331 47.3957C65.5091 50.4844 67.1376 53.1545 69.0755 55.6153L68.9778 55.4854C69.9956 56.7483 74.083 57.405 75.915 58.0617C77.8447 58.6607 79.3918 59.2308 80.89 59.8731L80.5887 59.7576C82.9255 61.0205 85.2054 62.4638 87.4038 63.8494C88.5193 64.535 91.9147 66.0432 92.1182 67.2556L92.1019 67.2772ZM22.7213 14.8853C22.705 14.8853 22.6805 14.8853 22.6561 14.8853C21.6872 14.8853 20.7508 14.9935 19.8552 15.1956L19.9366 15.1811V15.2966H20.075C20.7752 16.2203 21.4918 17.0214 22.2653 17.7719L22.249 17.7575C22.7945 18.7245 23.2668 19.6843 23.8123 20.6441L23.9507 20.5069C24.8383 19.8863 25.4001 18.9337 25.4001 17.8657C25.4001 17.7358 25.3919 17.6131 25.3756 17.4832V17.4977C24.9685 17.0719 24.9115 16.6533 24.5614 16.2348C24.1543 15.6286 23.2831 15.3327 22.7294 14.8564L22.7213 14.8853Z" fill="#18E48C"/>
</svg>
