<svg width="100" height="54" viewBox="0 0 100 54" fill="none" xmlns="http://www.w3.org/2000/svg">
<path d="M49.4219 54C49.0937 54 48.7656 53.9173 48.4687 53.7796L45.4687 52.2091C45.0156 51.9887 45.2344 51.906 45.3906 51.8647C45.9844 51.6856 46.1094 51.6443 46.75 51.3137C46.8125 51.2861 46.9062 51.2999 46.9687 51.3275L49.2812 52.5397C49.3594 52.5811 49.4844 52.5811 49.5625 52.5397L58.5937 47.9386C58.6719 47.8972 58.7344 47.8146 58.7344 47.7181V38.5295C58.7344 38.4331 58.6875 38.3504 58.5937 38.3091L49.5625 33.7217C49.4844 33.6804 49.375 33.6804 49.2812 33.7217L40.25 38.3091C40.1562 38.3504 40.1094 38.4469 40.1094 38.5295V47.7181C40.1094 47.8008 40.1719 47.8834 40.25 47.9248L42.7187 49.1784C44.0625 49.7708 44.8906 49.0682 44.8906 48.3794V39.301C44.8906 39.177 45 39.0668 45.1562 39.0668H46.2969C46.4375 39.0668 46.5625 39.1632 46.5625 39.301V48.3794C46.5625 49.9636 45.5937 50.8591 43.8906 50.8591C43.375 50.8591 42.9531 50.8591 41.8125 50.3631L39.4375 49.1646C38.8594 48.8615 38.4844 48.3105 38.4844 47.7181V38.5295C38.4844 37.9372 38.8437 37.3723 39.4375 37.083L48.4687 32.4819C49.0469 32.1926 49.7969 32.1926 50.3594 32.4819L59.3906 37.083C59.9688 37.3861 60.3438 37.9372 60.3438 38.5295V47.7181C60.3438 48.3105 59.9844 48.8753 59.3906 49.1646L50.3594 53.7658C50.0937 53.9173 49.7656 54 49.4219 54ZM56.7187 44.9354C56.7187 43.2134 55.4062 42.7588 52.625 42.4281C49.8125 42.0975 49.5312 41.9322 49.5312 41.3536C49.5312 40.8715 49.7656 40.2378 51.8437 40.2378C53.7031 40.2378 54.3906 40.5959 54.6719 41.698C54.7031 41.8082 54.7969 41.8771 54.9219 41.8771H56.0937C56.1719 41.8771 56.2344 41.8495 56.2812 41.8082C56.3281 41.7531 56.3594 41.698 56.3437 41.6291C56.1562 39.728 54.7344 38.8464 51.8437 38.8464C49.2656 38.8464 47.7344 39.8107 47.7344 41.4087C47.7344 43.1583 49.2656 43.6267 51.7344 43.8471C54.6875 44.1088 54.9219 44.4808 54.9219 44.9905C54.9219 45.8859 54.1094 46.2579 52.2031 46.2579C49.8125 46.2579 49.2812 45.7344 49.1094 44.6874C49.0937 44.5772 48.9844 44.4945 48.8437 44.4945H47.6719C47.5312 44.4945 47.4062 44.591 47.4062 44.7287C47.4062 46.065 48.2344 47.663 52.1875 47.663C55.0781 47.663 56.7187 46.6712 56.7187 44.9354ZM65.2344 38.0336C65.2344 38.8739 64.4531 39.5627 63.5 39.5627C62.5469 39.5627 61.7656 38.8739 61.7656 38.0336C61.7656 37.1657 62.5781 36.5045 63.5 36.5045C64.4375 36.4907 65.2344 37.1657 65.2344 38.0336ZM64.9531 38.0336C64.9531 37.3172 64.2969 36.7524 63.4844 36.7524C62.6875 36.7524 62.0312 37.3172 62.0312 38.0336C62.0312 38.7499 62.6875 39.3285 63.4844 39.3285C64.2969 39.3148 64.9531 38.7362 64.9531 38.0336ZM64.25 38.8877H63.8437C63.8281 38.805 63.7656 38.3642 63.7656 38.3504C63.7344 38.254 63.7031 38.1989 63.5625 38.1989H63.2187V38.8877H62.8438V37.1657H63.5156C63.75 37.1657 64.2031 37.1657 64.2031 37.6203C64.2031 37.9372 63.9687 38.006 63.8281 38.0474C64.0937 38.0611 64.1094 38.2127 64.1562 38.4331C64.1719 38.5709 64.2031 38.805 64.25 38.8877ZM63.8125 37.6754C63.8125 37.4412 63.625 37.4412 63.5312 37.4412H63.2187V37.9234H63.5156C63.7656 37.9234 63.8125 37.7718 63.8125 37.6754ZM21.4531 18.0446C21.4531 17.6726 21.2344 17.342 20.875 17.1629L11.2969 12.3C11.1406 12.2173 10.9531 12.176 10.7656 12.1622H10.6719C10.4844 12.1622 10.3125 12.2173 10.1406 12.3L0.578125 17.1629C0.21875 17.342 0 17.6864 0 18.0446L0.015625 31.1318C0.015625 31.3109 0.125 31.4762 0.296875 31.5726C0.46875 31.6691 0.6875 31.6691 0.875 31.5726L6.5625 28.6934C6.92187 28.5006 7.14062 28.17 7.14062 27.8118V21.6952C7.14062 21.3371 7.35937 20.9927 7.71875 20.8136L10.1406 19.5875C10.3281 19.4911 10.5156 19.4497 10.7187 19.4497C10.9219 19.4497 11.125 19.4911 11.2969 19.5875L13.7187 20.8136C14.0781 20.9927 14.2969 21.3371 14.2969 21.6952V27.8118C14.2969 28.17 14.5156 28.5144 14.875 28.6934L20.5625 31.5726C20.7344 31.6691 20.9688 31.6691 21.1406 31.5726C21.3125 31.49 21.4219 31.3109 21.4219 31.1318L21.4531 18.0446ZM73.8281 3.75885V28.0598C73.8281 28.4179 73.6094 28.7623 73.25 28.9414L63.6719 33.8181C63.3125 33.9972 62.875 33.9972 62.5156 33.8181L52.9375 28.9414C52.5781 28.7623 52.3594 28.4179 52.3594 28.0598V18.3063C52.3594 17.9482 52.5781 17.6038 52.9375 17.4247L62.5156 12.548C62.875 12.3689 63.3125 12.3689 63.6719 12.548L66.0625 13.7602C66.3281 13.898 66.6719 13.7189 66.6719 13.4572V0.507712C66.6719 0.121984 67.1406 -0.125985 67.5313 0.0668794L73.2344 2.87719C73.5938 3.0425 73.8281 3.3869 73.8281 3.75885ZM66.6406 21.5161C66.6406 21.4197 66.5781 21.3371 66.5 21.2957L63.2187 19.6151C63.125 19.5737 63.0156 19.5737 62.9219 19.6151L59.6406 21.2957C59.5469 21.3371 59.5 21.4197 59.5 21.5161V24.8637C59.5 24.9601 59.5625 25.0428 59.6406 25.0841L62.9219 26.751C63.0156 26.7924 63.125 26.7924 63.2031 26.751L66.4844 25.0841C66.5781 25.0428 66.625 24.9601 66.625 24.8637V21.5161H66.6406ZM99.4219 21.4197C99.7812 21.2406 100 20.8962 100 20.538V18.1823C100 17.8242 99.7812 17.4798 99.4219 17.3007L89.9062 12.424C89.5469 12.2449 89.1094 12.2449 88.75 12.424L79.1719 17.3007C78.8125 17.4798 78.5937 17.8242 78.5937 18.1823V27.9358C78.5937 28.3077 78.8125 28.6383 79.1719 28.8174L88.6875 33.5977C89.0312 33.7768 89.4687 33.7768 89.8281 33.5977L95.5781 30.7736C95.9687 30.5808 95.9687 30.0848 95.5781 29.892L85.9375 25.0153C85.75 24.9188 85.6406 24.7535 85.6406 24.5744V21.5161C85.6406 21.3371 85.75 21.1717 85.9375 21.0753L88.9375 19.5462C89.1094 19.4497 89.3437 19.4497 89.5156 19.5462L92.5156 21.0753C92.6875 21.1717 92.8125 21.3371 92.8125 21.5161V23.9132C92.8125 24.2989 93.2969 24.5469 93.6875 24.354L99.4219 21.4197ZM87.3437 21.9019C87.2812 21.9432 87.2344 21.9983 87.2344 22.0672V23.9407C87.2344 24.0096 87.2812 24.0785 87.3437 24.106L89.1875 25.0428C89.25 25.0841 89.3438 25.0841 89.4063 25.0428L91.25 24.106C91.3125 24.0647 91.3594 24.0096 91.3594 23.9407V22.0672C91.3594 21.9983 91.3125 21.9294 91.25 21.9019L89.4063 20.9651C89.3438 20.9238 89.25 20.9238 89.1875 20.9651L87.3437 21.9019ZM47.625 27.8944V18.1961C47.625 17.8379 47.375 17.4935 47.0156 17.3145L37.4687 12.4653C37.1406 12.3 36.6875 12.2724 36.3125 12.4653L26.7656 17.3145C26.4062 17.4935 26.1562 17.8242 26.1562 18.1961V27.8944C26.1562 28.2802 26.4531 28.6108 26.7812 28.7761L36.3437 33.6253C36.7187 33.8181 37.1562 33.8044 37.5 33.6253L47.0312 28.7761C47.3125 28.6383 47.5156 28.4042 47.5937 28.1286C47.6094 28.0598 47.625 27.9771 47.625 27.8944ZM36.0156 10.6882L35.8906 10.7571H36.0625L36.0156 10.6882ZM47.9219 28.6246L47.8594 28.5281V28.6521L47.9219 28.6246Z" fill="#18E48C"/>
</svg>
